<?xml version="1.0" encoding="UTF-8"?>
<svg viewBox="0 0 100% 100%" xmlns="http://www.w3.org/2000/svg">
 <path id="path4" style="opacity:.25;stroke:#000000;stroke-width:2;stroke-miterlimit:10" stroke-miterlimit="10" d="m91.74 21.262c-34 0-42.5 27.5-15.3 33-27.2 12.1 3.4 38.5 25.5 27.5 15.3 22 66.3 22 83.3 0 34 0 34-22 12.75-33 21.25-22-12.75-44-42.5-33-21.25-16.5-55.25-16.5-63.75 5.5z"/>
 <path id="path6" style="stroke:#99ccff;stroke-width:2;stroke-miterlimit:10;fill:#dae8fc" d="m89.74 18.262c-34 0-42.5 27.5-15.3 33-27.2 12.1 3.4 38.5 25.5 27.5 15.3 22 66.3 22 83.3 0 34 0 34-22 12.75-33 21.25-22-12.75-44-42.5-33-21.25-16.5-55.25-16.5-63.75 5.5z" pointer-events="none" stroke-miterlimit="10"/>
 <path id="path8" style="opacity:.25;stroke-linejoin:round;stroke:#000000;stroke-linecap:round;stroke-miterlimit:10;stroke-width:2" stroke-miterlimit="10" d="m3.24 214.76v-.45l10 .19 10 .15 10-.31 10-.15 10 .29 10 1.02 10-.13 10-1.07 10 .89 10-.88 10 .49 10-.09 10 .42 10-1.02 10 .55 10-.08 10 .51 10-.59 10 .94 10-.53 10-.06 10 .26 10-.97 10 .81 10 .35 10-1.02 10-.23 10 .71h-.22l.46 7.8-.27 7.8.24 7.8.01 7.8-.22 7.8v-.22l-10 .1-10 .56-10-.99-10-.2-10 1.17-10-1.02-10 1.15-10-1.05-10 .48-10-.62-10 .53-10-.59-10 1.29-10-.83-10 .8-10-.88-10 .15-10 .45-10-.4-10 .56-10 .22-10-.34-10 .12-10-.84-10 .67-10-.63-10-.13-10 .49h.13l-.22-7.8.29-7.8-.34-7.8.24-7.8-.1-7.8z"/>
 <path id="path10" style="stroke-linejoin:round;stroke:#000000;stroke-linecap:round;stroke-miterlimit:10;stroke-width:2;fill:#ffffff" d="m1.24 211.76v-.45l10 .19 10 .15 10-.31 10-.15 10 .29 10 1.02 10-.13 10-1.07 10 .89 10-.88 10 .49 10-.09 10 .42 10-1.02 10 .55 10-.08 10 .51 10-.59 10 .94 10-.53 10-.06 10 .26 10-.97 10 .81 10 .35 10-1.02 10-.23 10 .71h-.22l.46 7.8-.27 7.8.24 7.8.01 7.8-.22 7.8v-.22l-10 .1-10 .56-10-.99-10-.2-10 1.17-10-1.02-10 1.15-10-1.05-10 .48-10-.62-10 .53-10-.59-10 1.29-10-.83-10 .8-10-.88-10 .15-10 .45-10-.4-10 .56-10 .22-10-.34-10 .12-10-.84-10 .67-10-.63-10-.13-10 .49h.13l-.22-7.8.29-7.8-.34-7.8.24-7.8-.1-7.8z" pointer-events="none" stroke-miterlimit="10"/>
 <text id="text12" y="236.26183" x="140.73999" font-size="12" style="font-size:12px;font-family:&apos;Courier New&apos;;text-anchor:middle">/boats</text>
 <path id="path14" style="opacity:.25;stroke-linejoin:round;stroke:#000000;stroke-linecap:round;stroke-miterlimit:10;stroke-width:2" stroke-miterlimit="10" d="m3.24 377.76v.5l10-.6 10-.51 10 .23 10 .09 10 .71 10-.92 10 .46 10 .67 10-.56 10 .61 10-.1 10-.71 10-.6 10 .13 10 .11 10 .26 10 .97 10-.16 10-1.04 10 .17 10-.19 10 .07 10 .89 10 .07 10-.24 10 .04 10 .21 10-.56h.18l-.36 7.2-.04 7.2.3 7.2-.01 7.2-.07 7.2v.05l-10 .5-10-1.26-10 .24-10 .44-10-.59-10 .51-10 .05-10 .47-10 .18-10-1.08-10 .44-10-.53-10 .95-10-.95-10 1.11-10 .17-10-.08-10-.02-10-.39-10 .02-10 .36-10-.57-10 .58-10-1.12-10 .23-10 .92-10-1.11-10 .48h.17l-.13-7.2-.18-7.2.19-7.2-.11-7.2.06-7.2z"/>
 <path id="path16" style="stroke-linejoin:round;stroke:#82b366;stroke-linecap:round;stroke-miterlimit:10;stroke-width:2;fill:#d5e8d4" d="m1.24 374.76v.5l10-.6 10-.51 10 .23 10 .09 10 .71 10-.92 10 .46 10 .67 10-.56 10 .61 10-.1 10-.71 10-.6 10 .13 10 .11 10 .26 10 .97 10-.16 10-1.04 10 .17 10-.19 10 .07 10 .89 10 .07 10-.24 10 .04 10 .21 10-.56h.18l-.36 7.2-.04 7.2.3 7.2-.01 7.2-.07 7.2v.05l-10 .5-10-1.26-10 .24-10 .44-10-.59-10 .51-10 .05-10 .47-10 .18-10-1.08-10 .44-10-.53-10 .95-10-.95-10 1.11-10 .17-10-.08-10-.02-10-.39-10 .02-10 .36-10-.57-10 .58-10-1.12-10 .23-10 .92-10-1.11-10 .48h.17l-.13-7.2-.18-7.2.19-7.2-.11-7.2.06-7.2z" pointer-events="none" stroke-miterlimit="10"/>
 <text id="text18" y="398.26181" x="140.73999" font-size="12" style="font-size:12px;font-family:&apos;Courier New&apos;;text-anchor:middle">/realestate</text>
 <path id="path20" style="opacity:.25;stroke-linejoin:round;stroke:#000000;stroke-linecap:round;stroke-miterlimit:10;stroke-width:2" stroke-miterlimit="10" d="m3.24 294.76v-.34l10-.29 10 .43 10-.49 10 .33 10 .76 10-.25 10-.29 10-.6 10 .82 10-.3 10-.48 10 .28 10 .41 10 .53 10-.94 10-.06 10 .42 10 .68 10-.63 10-.18 10-.18 10-.35 10 1.22 10-1.07 10 .97 10-.88 10 1.12 10-.64h.12l-.1 7.8-.03 7.8-.03 7.8.29 7.8-.25 7.8v.2l-10 .53-10-.7-10-.61-10-.12-10 .69-10 .1-10 .31-10-.04-10-.13-10-.57-10 .4-10 .48-10-.46-10-.62-10 .2-10 .56-10-.87-10 .56-10-.52-10 1.01-10 .13-10-.77-10-.29-10 .17-10 .59-10 .31-10-.27-10-.27h-.24l.24-7.8-.19-7.8.33-7.8-.11-7.8-.03-7.8z"/>
 <path id="path22" style="stroke-linejoin:round;stroke:#000000;stroke-linecap:round;stroke-miterlimit:10;stroke-width:2;fill:#ffffff" d="m1.24 291.76v-.34l10-.29 10 .43 10-.49 10 .33 10 .76 10-.25 10-.29 10-.6 10 .82 10-.3 10-.48 10 .28 10 .41 10 .53 10-.94 10-.06 10 .42 10 .68 10-.63 10-.18 10-.18 10-.35 10 1.22 10-1.07 10 .97 10-.88 10 1.12 10-.64h.12l-.1 7.8-.03 7.8-.03 7.8.29 7.8-.25 7.8v.2l-10 .53-10-.7-10-.61-10-.12-10 .69-10 .1-10 .31-10-.04-10-.13-10-.57-10 .4-10 .48-10-.46-10-.62-10 .2-10 .56-10-.87-10 .56-10-.52-10 1.01-10 .13-10-.77-10-.29-10 .17-10 .59-10 .31-10-.27-10-.27h-0.24l0.24-7.8-.19-7.8.33-7.8-.11-7.8-.03-7.8z" pointer-events="none" stroke-miterlimit="10"/>
 <text id="text24" y="316.26181" x="140.73999" font-size="12" style="font-size:12px;font-family:&apos;Courier New&apos;;text-anchor:middle">/boats/:id</text>
 <path id="path26" style="opacity:.25;stroke-linejoin:round;stroke:#000000;stroke-linecap:round;stroke-miterlimit:10;stroke-width:2" stroke-miterlimit="10" d="m3.24 454.76v-.46l10 .7 10-.86 10-.05 10 1.38 10-.08 10-.59 10 .17 10-.95 10 .77 10-.24 10 .46 10-.9 10 .73 10-.18 10-.22 10 .75 10-.02 10-.37 10 .13 10 .45 10-.46 10-.25 10 .46 10 .26 10-.25 10-.73 10 .06 10 .29h.23l-.17 7.8-.27 7.8.31 7.8-.34 7.8.24 7.8v.33l-10-1.04-10 .33-10 .79-10-.51-10 .4-10 .27-10-.22-10-.49-10-.44-10-.1-10 .84-10-.72-10 .63-10 .63-10-1.23-10 .54-10 .62-10-.46-10-.68-10 1.19-10-.65-10-.05-10 .62-10 .06h-10l-10-.05-10-1.05-10 .44h-.23l.19-7.8-.17-7.8.29-7.8-.19-7.8.11-7.8z"/>
 <path id="path28" style="stroke-linejoin:round;stroke:#000000;stroke-linecap:round;stroke-miterlimit:10;stroke-width:2;fill:#ffffff" d="m1.24 451.76v-.46l10 .7 10-.86 10-.05 10 1.38 10-.08 10-.59 10 .17 10-.95 10 .77 10-.24 10 .46 10-.9 10 .73 10-.18 10-.22 10 .75 10-.02 10-.37 10 .13 10 .45 10-.46 10-.25 10 .46 10 .26 10-.25 10-.73 10 .06 10 .29h.23l-.17 7.8-.27 7.8.31 7.8-.34 7.8.24 7.8v.33l-10-1.04-10 .33-10 .79-10-.51-10 .4-10 .27-10-.22-10-.49-10-.44-10-.1-10 .84-10-.72-10 .63-10 .63-10-1.23-10 .54-10 .62-10-.46-10-.68-10 1.19-10-.65-10-.05-10 .62-10 .06h-10l-10-.05-10-1.05-10 .44h-.23l.19-7.8-.17-7.8.29-7.8-.19-7.8.11-7.8z" pointer-events="none" stroke-miterlimit="10"/>
 <text id="text30" y="476.26181" x="140.73999" font-size="12" style="font-size:12px;font-family:&apos;Courier New&apos;;text-anchor:middle">/realestate/:id</text>
 <path id="path32" style="stroke-linejoin:round;stroke:#000000;stroke-linecap:round;stroke-miterlimit:10;stroke-width:2;fill:none" d="m281.24 392.76h.06l-.03-.4-.24-.4.24-.4-.2-.4.17-.4v-.04l8 .14 8-.11 8 .11 8-.02 8-.08h-.51l.88-9.86-.3-9.85.21-9.86-.77-9.86-.01-9.86-.2-9.85.87-9.86.13-9.86-.27-9.85.03-9.86.51-9.86-1.17-9.86.24-9.85.63-9.86-.21-9.86-.08-9.85-.58-9.86.48-9.86-.56-9.86.62-9.85.77-9.86-.41-9.86-.9-9.85.34-9.86.59-9.86-.76-9.86-.1-9.85.3-9.86-.39-9.86 1.21-9.85-.32-9.86-.99-9.86 1.11-9.86-.67-9.85.28-9.86v.05l-10.43-.75-10.44.61-10.43-.64-10.43.31-10.44.34-10.43-.03-10.43.5-10.43.35-10.44-.21-10.43-.15-10.43-.38" pointer-events="none" stroke-miterlimit="10"/>
 <path id="path34" style="stroke-linejoin:round;stroke:#000000;stroke-width:2;stroke-miterlimit:10;stroke-linecap:round" d="m198.48 45.762-.07-.2 1.71-.2 1.58-.6 1.64-.41 1.6-.53 1.54-.73h.07l.07 1.07-.18 1.07.2 1.06-.41 1.07.25 1.07-.02-.05-1.64-.66-1.52-.29-1.64-.64-1.56-.42-1.62-.61z" pointer-events="none" stroke-miterlimit="10"/>
 <path id="path36" style="stroke-linejoin:round;stroke:#000000;stroke-linecap:round;stroke-miterlimit:10;stroke-width:2;fill:none" d="m141.24 95.762h.19l-.86 9.61.03 9.62.59 9.61.08 9.62-.07 9.61.73 9.62v9.61l-1.16 9.62 1.02 9.61-1.2 9.62.65 9.61" pointer-events="none" stroke-miterlimit="10"/>
 <path id="path38" style="stroke-linejoin:round;stroke:#000000;stroke-width:2;stroke-miterlimit:10;stroke-linecap:round" d="m141.24 209.52-.06-.02-.26-1.51-.91-1.72-.59-1.62-.25-1.51-.6-1.62v-.02l1.07.26 1.07-.19 1.06-.01 1.07-.08 1.07.04-.04-.01-.32 1.67-.72 1.54-.37 1.66-.5 1.61-.72 1.53z" pointer-events="none" stroke-miterlimit="10"/>
 <path id="path40" style="stroke-linejoin:round;stroke:#000000;stroke-linecap:round;stroke-miterlimit:10;stroke-width:2;fill:none" d="m141.24 250.76h.02l-.05 6.15.16 6.16-.18 6.15.07 6.15-.02 6.15" pointer-events="none" stroke-miterlimit="10"/>
 <path id="path42" style="stroke-linejoin:round;stroke:#000000;stroke-width:2;stroke-miterlimit:10;stroke-linecap:round" d="m141.24 289.52-.15-.05-.5-1.58-.52-1.6-.43-1.57-.75-1.67-.32-1.53v.08l1.07.08 1.07-.3 1.06.23 1.07-.01 1.07-.08.06.02-.74 1.54-.16 1.72-.95 1.46-.21 1.71-.67 1.55z" pointer-events="none" stroke-miterlimit="10"/>
 <path id="path44" style="stroke-linejoin:round;stroke:#000000;stroke-linecap:round;stroke-miterlimit:10;stroke-width:2;fill:none" d="m141.24 330.76h-.21l.2 6.75.21 6.76-.13 6.75.17 6.75-.24 6.75" pointer-events="none" stroke-miterlimit="10"/>
 <path id="path46" style="stroke-linejoin:round;stroke:#000000;stroke-width:2;stroke-miterlimit:10;stroke-linecap:round" d="m141.24 372.52-.17-.05-.26-1.51-.4-1.56-.79-1.68-.71-1.66-.34-1.54v.02l1.07.19 1.07-.39 1.06.26 1.07-.11 1.07.03-.09-.02-.28 1.68-.58 1.58-.58 1.59-.72 1.54-.42 1.63z" pointer-events="none" stroke-miterlimit="10"/>
 <path id="path48" style="stroke:#000000;stroke-miterlimit:10;fill:none" d="m141.24 330.76" pointer-events="none" stroke-miterlimit="10"/>
 <path id="path50" style="stroke:#000000;stroke-miterlimit:10" d="m141.24 330.76z" pointer-events="none" stroke-miterlimit="10"/>
 <path id="path52" pointer-events="none" style="fill:#ffffff" d="m112.24 104.76h60v20h-60z"/>
 <text id="text54" y="120.26182" x="141.73999" font-size="12" style="font-size:12px;font-family:&apos;Courier New&apos;;text-anchor:middle">request</text>
 <path id="path56" pointer-events="none" style="fill:#ffffff" d="m287.24 104.76h70v20h-70z"/>
 <text id="text58" y="120.26182" x="321.73999" font-size="12" style="font-size:12px;font-family:&apos;Courier New&apos;;text-anchor:middle">response</text>
</svg>
