<svg viewBox="0 0 100% 100%" xmlns="http://www.w3.org/2000/svg">
    <path d="M92 32c-34 0-42.5 27.5-15.3 33-27.2 12.1 3.4 38.5 25.5 27.5 15.3 22 66.3 22 83.3 0 34 0 34-22 12.75-33 21.25-22-12.75-44-42.5-33C134.5 10 100.5 10 92 32z" stroke="#000" stroke-width="2" stroke-miterlimit="10" opacity=".25"/>
    <path d="M90 29c-34 0-42.5 27.5-15.3 33-27.2 12.1 3.4 38.5 25.5 27.5 15.3 22 66.3 22 83.3 0 34 0 34-22 12.75-33 21.25-22-12.75-44-42.5-33C132.5 7 98.5 7 90 29z" fill="#dae8fc" stroke="#9cf" stroke-width="2" stroke-miterlimit="10" pointer-events="none"/>
    <path d="M3.5 225.5v.14l10-.3 10-.2 10-.06 10 1.13 10-1.02 10 .1 10 .93 10-1.03 10 1.05 10-1.32 10 1.09 10-1.19 10 1.39 10-1.37 10 1.3 10 .11 10-.6 10-.66 10 .75 10-.63 10 .82 10 .09 10-.46 10-.22 10-.18 10 .08 10 .85 10-.59h.05l-.16 7.8.27 7.8-.36 7.8.05 7.8.15 7.8v-.35l-10 .49-10-.49-10-.05-10 .21-10 .61-10 .01-10-1-10 .27-10 .03-10 .23-10-.71-10 1.31-10 .19-10-.06-10-.07-10-.45-10 .47-10-.9-10 .24-10 .6-10-.68-10 .7-10-1.18-10-.15-10 1.3-10-1.11-10-.07-10 .61h-.14l.21-7.8-.16-7.8.06-7.8.09-7.8-.06-7.8z" stroke="#000" stroke-width="2" stroke-linejoin="round" stroke-linecap="round" stroke-miterlimit="10" opacity=".25"/>
    <path d="M1.5 222.5v.14l10-.3 10-.2 10-.06 10 1.13 10-1.02 10 .1 10 .93 10-1.03 10 1.05 10-1.32 10 1.09 10-1.19 10 1.39 10-1.37 10 1.3 10 .11 10-.6 10-.66 10 .75 10-.63 10 .82 10 .09 10-.46 10-.22 10-.18 10 .08 10 .85 10-.59h.05l-.16 7.8.27 7.8-.36 7.8.05 7.8.15 7.8v-.35l-10 .49-10-.49-10-.05-10 .21-10 .61-10 .01-10-1-10 .27-10 .03-10 .23-10-.71-10 1.31-10 .19-10-.06-10-.07-10-.45-10 .47-10-.9-10 .24-10 .6-10-.68-10 .7-10-1.18-10-.15-10 1.3-10-1.11-10-.07-10 .61h-.14l.21-7.8-.16-7.8.06-7.8.09-7.8-.06-7.8z" fill="#fff" stroke="#000" stroke-width="2" stroke-linejoin="round" stroke-linecap="round" stroke-miterlimit="10" pointer-events="none"/>
    <text x="22" y="12" text-anchor="middle" font-size="12" font-family="Courier New" transform="translate(119 235)">
        /boats
    </text>
    <path d="M3.5 388.5v-.39l10 .56 10-.65 10 .03 10 .1 10-.1 10 1.09 10 .04 10-.94 10 .44 10-.89 10 1.06 10-.54 10 .34 10-.74 10 .84 10-.18 10-.63 10 .74 10 .47 10-.18 10-.26 10 .36 10-1.01 10 .5 10 .15 10 .24 10-.04 10-.41h.05l-.12 7.2.07 7.2-.05 7.2.12 7.2-.07 7.2v.59l-10-.77-10-.21-10 .07-10 .65-10 .15-10-.35-10-.71-10 .72-10-.64-10 .65-10 .48-10-.44-10-.14-10 .42-10-.98-10 .04-10 .08-10 .88-10-.69-10-.53-10 1.38-10-.44-10 .53-10-1.38-10 1.04-10-.07-10-.25-10-.08h.12l.11-7.2-.25-7.2-.19-7.2.33-7.2-.12-7.2z" stroke="#000" stroke-width="2" stroke-linejoin="round" stroke-linecap="round" stroke-miterlimit="10" opacity=".25"/>
    <path d="M1.5 385.5v-.39l10 .56 10-.65 10 .03 10 .1 10-.1 10 1.09 10 .04 10-.94 10 .44 10-.89 10 1.06 10-.54 10 .34 10-.74 10 .84 10-.18 10-.63 10 .74 10 .47 10-.18 10-.26 10 .36 10-1.01 10 .5 10 .15 10 .24 10-.04 10-.41h.05l-.12 7.2.07 7.2-.05 7.2.12 7.2-.07 7.2v.59l-10-.77-10-.21-10 .07-10 .65-10 .15-10-.35-10-.71-10 .72-10-.64-10 .65-10 .48-10-.44-10-.14-10 .42-10-.98-10 .04-10 .08-10 .88-10-.69-10-.53-10 1.38-10-.44-10 .53-10-1.38-10 1.04-10-.07-10-.25-10-.08h.12l.11-7.2-.25-7.2-.19-7.2.33-7.2-.12-7.2z" fill="#fff" stroke="#000" stroke-width="2" stroke-linejoin="round" stroke-linecap="round" stroke-miterlimit="10" pointer-events="none"/>
    <text x="40" y="12" text-anchor="middle" font-size="12" font-family="Courier New" transform="translate(101 397)">
        /realestate
    </text>
    <path d="M3.5 305.5v-.55l10 .03 10-.21 10 .7 10 .77 10-.19 10-1.07 10 .02 10-.03 10 .52 10 .23 10 .24 10-.63 10-.19 10 .65 10-.68 10 .65 10 .47 10-.97 10-.18 10-.11 10 .01 10 .91 10-.3 10 .58 10-1.41 10 .87 10 .55 10-.68h.15l.09 7.8-.14 7.8.04 7.8-.08 7.8-.06 7.8v.32l-10-.2-10-.37-10-.29-10 .32-10-.06-10-.45-10 .83-10 .01-10 .57-10-.28-10-.92-10-.17-10 1.16-10-.35-10 .49-10-1.03-10-.2-10 1.13-10-.15-10-.28-10 .36-10-.43-10 .63-10-.43-10-.26-10-.66-10 .85-10-.14h.15l-.04-7.8-.08-7.8.08-7.8-.04-7.8-.07-7.8z" stroke="#000" stroke-width="2" stroke-linejoin="round" stroke-linecap="round" stroke-miterlimit="10" opacity=".25"/>
    <path d="M1.5 302.5v-.55l10 .03 10-.21 10 .7 10 .77 10-.19 10-1.07 10 .02 10-.03 10 .52 10 .23 10 .24 10-.63 10-.19 10 .65 10-.68 10 .65 10 .47 10-.97 10-.18 10-.11 10 .01 10 .91 10-.3 10 .58 10-1.41 10 .87 10 .55 10-.68h.15l.09 7.8-.14 7.8.04 7.8-.08 7.8-.06 7.8v.32l-10-.2-10-.37-10-.29-10 .32-10-.06-10-.45-10 .83-10 .01-10 .57-10-.28-10-.92-10-.17-10 1.16-10-.35-10 .49-10-1.03-10-.2-10 1.13-10-.15-10-.28-10 .36-10-.43-10 .63-10-.43-10-.26-10-.66-10 .85-10-.14h.15l-.04-7.8-.08-7.8.08-7.8-.04-7.8-.07-7.8z" fill="#fff" stroke="#000" stroke-width="2" stroke-linejoin="round" stroke-linecap="round" stroke-miterlimit="10" pointer-events="none"/>
    <text x="37" y="12" text-anchor="middle" font-size="12" font-family="Courier New" transform="translate(104 315)">
        /boats/:id
    </text>
    <path d="M3.5 465.5v.72l10-.08 10-.67 10-.66 10 1.2 10-1.24 10 .55 10-.15 10 .23h10l10 .5 10-.59 10-.2 10 .55 10 .56 10-.25 10-.38 10 .26 10 .2 10-.09 10-.58 10 .15 10-.03 10-.15 10-.14 10 .18 10 .49 10-.68 10 .3h.11l-.2 7.8-.05 7.8-.04 7.8.27 7.8-.09 7.8v.3l-10 .4-10-.37-10-.78-10 .01-10 .06-10 .55-10-.35-10 .26-10 .58-10-.86-10-.43-10-.01-10 .87-10-.73-10 .74-10 .16-10-.47-10 .63-10-1.03-10 .9-10 .26-10-.87-10-.34-10 1.25-10-.89-10 .23-10-.1-10 .03h-.2l.14-7.8.13-7.8-.17-7.8.04-7.8.06-7.8z" stroke="#000" stroke-width="2" stroke-linejoin="round" stroke-linecap="round" stroke-miterlimit="10" opacity=".25"/>
    <path d="M1.5 462.5v.72l10-.08 10-.67 10-.66 10 1.2 10-1.24 10 .55 10-.15 10 .23h10l10 .5 10-.59 10-.2 10 .55 10 .56 10-.25 10-.38 10 .26 10 .2 10-.09 10-.58 10 .15 10-.03 10-.15 10-.14 10 .18 10 .49 10-.68 10 .3h.11l-.2 7.8-.05 7.8-.04 7.8.27 7.8-.09 7.8v.3l-10 .4-10-.37-10-.78-10 .01-10 .06-10 .55-10-.35-10 .26-10 .58-10-.86-10-.43-10-.01-10 .87-10-.73-10 .74-10 .16-10-.47-10 .63-10-1.03-10 .9-10 .26-10-.87-10-.34-10 1.25-10-.89-10 .23-10-.1-10 .03h-.2l.14-7.8.13-7.8-.17-7.8.04-7.8.06-7.8z" fill="#fff" stroke="#000" stroke-width="2" stroke-linejoin="round" stroke-linecap="round" stroke-miterlimit="10" pointer-events="none"/>
    <text x="55" y="12" text-anchor="middle" font-size="12" font-family="Courier New" transform="translate(86 475)">
        /realestate/:id
    </text>
    <path d="M281.5 561.5v-1.18l8 .03 8 .02 8 .26 8-.06 8-.07h-.43l.02-10.08-.11-10.08.54-10.08-.48-10.08-.22-10.08.6-10.08.56-10.08-.13-10.08-1.1-10.08.95-10.08-.68-10.08.13-10.08.29-10.08-.24-10.08-.33-10.08.83-10.08-.29-10.08.26-10.08-.51-10.08.31-10.08.73-10.08-.54-10.08-.11-10.08.34-10.08-.61-10.08.69-10.08-1.17-10.08 1.24-10.08-1.23-10.08 1.22-10.08-.05-10.08-.18-10.08-.46-10.08-.23-10.08-.29-10.08.2-10.08.42-10.08-.38-10.08.08-10.08-.03-10.08-.27-10.08.89-10.08-.64-10.08.89-10.08.13-10.08-.2-10.08-1.04-10.08.94-10.08-.01-10.08-.3-10.08v-.04l-10.43-.21-10.44-.23H290.2l-10.43.79-10.44-.85-10.43-.14-10.43 1.29-10.43-1.23-10.44-.01-10.43.25-10.43.38" fill="none" stroke="#000" stroke-width="2" stroke-linejoin="round" stroke-linecap="round" stroke-miterlimit="10" pointer-events="none"/>
    <path d="M198.74 56.5l-.02-.05 1.61-.51 1.55-.69 1.64-.41 1.64-.4 1.58-.61h.02l-.25 1.07.41 1.07-.22 1.06.06 1.07-.02 1.07.01.03-1.54-.33-1.68-.79-1.61-.58-1.54-.33-1.64-.67z" stroke="#000" stroke-width="2" stroke-linejoin="round" stroke-linecap="round" stroke-miterlimit="10" pointer-events="none"/>
    <path d="M141.5 106.5h.75l-.57 9.61-.58 9.62-.19 9.61.46 9.62-.45 9.61.29 9.62.93 9.61-.97 9.62v9.61l.28 9.62.05 9.61" fill="none" stroke="#000" stroke-width="2" stroke-linejoin="round" stroke-linecap="round" stroke-miterlimit="10" pointer-events="none"/>
    <path d="M141.5 220.26l-.05-.01-.47-1.58-.42-1.57-.7-1.65-.5-1.59-.53-1.6v.06l1.07-.3 1.07.12 1.06.16 1.07.19 1.07-.23-.13-.04-.22 1.71-.85 1.49-.46 1.62-.43 1.64-.58 1.58z" stroke="#000" stroke-width="2" stroke-linejoin="round" stroke-linecap="round" stroke-miterlimit="10" pointer-events="none"/>
    <path d="M141.5 261.5h-.17l.32 6.15-.28 6.16-.07 6.15.36 6.15-.16 6.15" fill="none" stroke="#000" stroke-width="2" stroke-linejoin="round" stroke-linecap="round" stroke-miterlimit="10" pointer-events="none"/>
    <path d="M141.5 300.26l.02.01-.38-1.55-.85-1.7-.59-1.62-.26-1.51-.61-1.63v-.14l1.07.38 1.07.01 1.06-.28 1.07-.19 1.07.22.03.01-.49 1.62-.6 1.58-.51 1.6-.44 1.64-.66 1.55z" stroke="#000" stroke-width="2" stroke-linejoin="round" stroke-linecap="round" stroke-miterlimit="10" pointer-events="none"/>
    <path d="M141.5 341.5h-.06l.3 6.75-.14 6.76-.04 6.75-.24 6.75.18 6.75" fill="none" stroke="#000" stroke-width="2" stroke-linejoin="round" stroke-linecap="round" stroke-miterlimit="10" pointer-events="none"/>
    <path d="M141.5 383.26l.13.05-.82-1.7-.26-1.51-.43-1.56-.98-1.75-.31-1.53v.15l1.07-.17 1.07-.03 1.06.06 1.07-.04 1.07.03.13.05-.72 1.54-.67 1.55-.23 1.7-.75 1.53-.43 1.63z" stroke="#000" stroke-width="2" stroke-linejoin="round" stroke-linecap="round" stroke-miterlimit="10" pointer-events="none"/>
    <path d="M141.5 341.5" fill="none" stroke="#000" stroke-miterlimit="10" pointer-events="none"/>
    <path d="M141.5 341.5z" stroke="#000" stroke-miterlimit="10" pointer-events="none"/>
    <path d="M3.5 544.5v.31l10-.64 10 .51 10 .07 10-.56 10 .04 10 .76 10 .16 10-.78 10-.55 10 .78 10-.16 10 .61 10-.54 10 .21 10-.91 10 .71 10 .49 10-.24 10-.96 10 .48 10-.18 10-.29 10 .79 10 .17 10-.94 10 .56 10-.41 10 .51h-.13l-.08 7.8.01 7.8-.03 7.8.32 7.8-.09 7.8v-.25l-10-.17-10 .95-10-.87-10 .74-10-.64-10 .4-10-.4-10 .6-10-.83-10 .65-10-.31-10-.53-10 .54-10 .18-10-.22-10-.1-10 .08-10 .54-10-.16-10-.26-10 .42-10-1.03-10 .5-10 .06-10-.4-10 .21-10 .74-10-.44h.2l-.09-7.8.13-7.8-.44-7.8.28-7.8-.08-7.8z" stroke="#000" stroke-width="2" stroke-linejoin="round" stroke-linecap="round" stroke-miterlimit="10" opacity=".25"/>
    <path d="M1.5 541.5v.31l10-.64 10 .51 10 .07 10-.56 10 .04 10 .76 10 .16 10-.78 10-.55 10 .78 10-.16 10 .61 10-.54 10 .21 10-.91 10 .71 10 .49 10-.24 10-.96 10 .48 10-.18 10-.29 10 .79 10 .17 10-.94 10 .56 10-.41 10 .51h-.13l-.08 7.8.01 7.8-.03 7.8.32 7.8-.09 7.8v-.25l-10-.17-10 .95-10-.87-10 .74-10-.64-10 .4-10-.4-10 .6-10-.83-10 .65-10-.31-10-.53-10 .54-10 .18-10-.22-10-.1-10 .08-10 .54-10-.16-10-.26-10 .42-10-1.03-10 .5-10 .06-10-.4-10 .21-10 .74-10-.44h.2l-.09-7.8.13-7.8-.44-7.8.28-7.8-.08-7.8z" fill="#e1d5e7" stroke="#9673a6" stroke-width="2" stroke-linejoin="round" stroke-linecap="round" stroke-miterlimit="10" pointer-events="none"/>
    <text x="47" y="12" text-anchor="middle" font-size="12" font-family="Courier New" transform="translate(94 554)">
        Error handler
    </text>
    <path d="M141.5 421.5h.06l-.1 6.15.17 6.16-.36 6.15.23 6.15v6.15" fill="none" stroke="#000" stroke-width="2" stroke-linejoin="round" stroke-linecap="round" stroke-miterlimit="10" pointer-events="none"/>
    <path d="M141.5 460.26l.15.05-.88-1.71-.21-1.5-.79-1.68-.18-1.48-.76-1.68v.16l1.07-.39 1.07.32 1.06-.17 1.07.29 1.07-.21.22.08-.88 1.48-.19 1.72-.95 1.46-.53 1.6-.34 1.66z" stroke="#000" stroke-width="2" stroke-linejoin="round" stroke-linecap="round" stroke-miterlimit="10" pointer-events="none"/>
    <path d="M141.5 501.5h.18l-.17 5.95.08 5.96-.17 5.95-.14 5.95.22 5.95" fill="none" stroke="#000" stroke-width="2" stroke-linejoin="round" stroke-linecap="round" stroke-miterlimit="10" pointer-events="none"/>
    <path d="M141.5 539.26h-.02l-.49-1.59-.39-1.55-.73-1.67-.28-1.51-.76-1.68v-.21l1.07.34 1.07-.06 1.06-.31 1.07.47 1.07-.23.12.04-.68 1.56-.28 1.68-.58 1.59-.87 1.48-.38 1.65z" stroke="#000" stroke-width="2" stroke-linejoin="round" stroke-linecap="round" stroke-miterlimit="10" pointer-events="none"/>
    <path fill="#fff" pointer-events="none" d="M112.5 115.5h60v20h-60z"/>
    <text x="25" y="12" text-anchor="middle" font-size="12" font-family="Courier New" transform="translate(117 119)">
        request
    </text>
    <path fill="#fff" pointer-events="none" d="M292.5 115.5h60v20h-60z"/>
    <text x="29" y="12" text-anchor="middle" font-size="12" font-family="Courier New" transform="translate(294 119)">
        response
    </text>
</svg>
