<svg viewBox="0 0 100% 100%" xmlns="http://www.w3.org/2000/svg">
    <path d="M138 32c-34 0-42.5 27.5-15.3 33-27.2 12.1 3.4 38.5 25.5 27.5 15.3 22 66.3 22 83.3 0 34 0 34-22 12.75-33 21.25-22-12.75-44-42.5-33C180.5 10 146.5 10 138 32z" stroke="#000" stroke-width="2" stroke-miterlimit="10" opacity=".25"/>
    <path d="M136 29c-34 0-42.5 27.5-15.3 33-27.2 12.1 3.4 38.5 25.5 27.5 15.3 22 66.3 22 83.3 0 34 0 34-22 12.75-33 21.25-22-12.75-44-42.5-33C178.5 7 144.5 7 136 29z" fill="#dae8fc" stroke="#9cf" stroke-width="2" stroke-miterlimit="10" pointer-events="none"/>
    <path d="M49.5 225.5v-.04l10-.69 10 1.09 10-.83 10-.17 10 .41 10 .03 10-.49 10 .1 10 .22 10 .37 10 .58 10-.16 10 .26h10l10-.42 10-.32 10-.26 10 .4 10-.26 10 .85 10-1.2 10 1.07 10-.75 10-.36 10 .63 10-.41 10 .74 10-.39h.15l-.4 7.8.48 7.8-.21 7.8.2 7.8-.22 7.8v-.06l-10 .09-10 .24-10-.09-10 .54-10-1.43-10 .14-10 .82-10-.82-10-.05-10 .7-10 .61-10-1.17-10 1.15-10-.18-10-.12-10-.09-10-.57-10-.45-10 .24-10 .41-10-.25-10 1.03-10-.35-10-.21-10 .3-10 .01-10-1.06-10 .62h-.05v-7.8l.26-7.8-.02-7.8-.03-7.8-.16-7.8z" stroke="#000" stroke-width="2" stroke-linejoin="round" stroke-linecap="round" stroke-miterlimit="10" opacity=".25"/>
    <path d="M47.5 222.5v-.04l10-.69 10 1.09 10-.83 10-.17 10 .41 10 .03 10-.49 10 .1 10 .22 10 .37 10 .58 10-.16 10 .26h10l10-.42 10-.32 10-.26 10 .4 10-.26 10 .85 10-1.2 10 1.07 10-.75 10-.36 10 .63 10-.41 10 .74 10-.39h.15l-.4 7.8.48 7.8-.21 7.8.2 7.8-.22 7.8v-.06l-10 .09-10 .24-10-.09-10 .54-10-1.43-10 .14-10 .82-10-.82-10-.05-10 .7-10 .61-10-1.17-10 1.15-10-.18-10-.12-10-.09-10-.57-10-.45-10 .24-10 .41-10-.25-10 1.03-10-.35-10-.21-10 .3-10 .01-10-1.06-10 .62h-.05v-7.8l.26-7.8-.02-7.8-.03-7.8-.16-7.8z" fill="#fff" stroke="#000" stroke-width="2" stroke-linejoin="round" stroke-linecap="round" stroke-miterlimit="10" pointer-events="none"/>
    <text x="22" y="12" text-anchor="middle" font-size="12" font-family="Courier New" transform="translate(165 235)">
        /boats
    </text>
    <path d="M49.5 388.5v-.14l10-.3 10 1.15 10-.83 10 .61 10-.43 10 .36 10 .17 10-.5 10 .5 10-.17 10-.96 10-.13 10 .14 10 1.22 10-.15 10-.34 10-.09 10-.47 10 .94 10-.2 10-.71 10-.13 10 1.1 10-.29 10-.62 10 .66 10-.91 10 .52h-.01l.21 7.2-.38 7.2.13 7.2.17 7.2-.12 7.2v.28l-10 .44-10 .03-10-.8-10-.18-10-.27-10 .66-10-.6-10-.15-10 .49-10 .8-10-.31-10-.56-10 .76-10 .1-10-.38-10 .42-10-.63-10-.18-10-.35-10 .53-10 .18-10-.73-10 .82-10-.74-10 .08-10 .09-10 .54-10-.34h.13l.03-7.2.02-7.2-.21-7.2-.07-7.2.1-7.2z" stroke="#000" stroke-width="2" stroke-linejoin="round" stroke-linecap="round" stroke-miterlimit="10" opacity=".25"/>
    <path d="M47.5 385.5v-.14l10-.3 10 1.15 10-.83 10 .61 10-.43 10 .36 10 .17 10-.5 10 .5 10-.17 10-.96 10-.13 10 .14 10 1.22 10-.15 10-.34 10-.09 10-.47 10 .94 10-.2 10-.71 10-.13 10 1.1 10-.29 10-.62 10 .66 10-.91 10 .52h-.01l.21 7.2-.38 7.2.13 7.2.17 7.2-.12 7.2v.28l-10 .44-10 .03-10-.8-10-.18-10-.27-10 .66-10-.6-10-.15-10 .49-10 .8-10-.31-10-.56-10 .76-10 .1-10-.38-10 .42-10-.63-10-.18-10-.35-10 .53-10 .18-10-.73-10 .82-10-.74-10 .08-10 .09-10 .54-10-.34h.13l.03-7.2.02-7.2-.21-7.2-.07-7.2.1-7.2z" fill="#fff" stroke="#000" stroke-width="2" stroke-linejoin="round" stroke-linecap="round" stroke-miterlimit="10" pointer-events="none"/>
    <text x="40" y="12" text-anchor="middle" font-size="12" font-family="Courier New" transform="translate(147 397)">
        /realestate
    </text>
    <path d="M49.5 305.5v-.44l10 1.09 10-.59 10-.42 10 .26 10 .19 10-.32 10 .14 10 .67 10-.76 10-.51 10 .54 10 .04 10-.41 10-.03 10 1.29 10-1.32 10 1.14 10 .11 10-1.35 10 .24 10 1 10-.48 10 .39 10-1.11 10 .4 10 .82 10-.35 10-.23h.14l-.14 7.8.21 7.8-.22 7.8.16 7.8-.15 7.8v-.11l-10 .39-10-.71-10 .83-10-.71-10 .15-10-.44-10 .48h-10l-10 .67-10-.52-10 .37-10-.51-10-.34-10-.28-10 .47-10 .52-10 .45-10-.36-10-1.07-10 .24-10 .32-10 .4-10-.79-10 .84-10-.65-10 .29-10 .41-10-.34h.24l-.18-7.8.17-7.8-.11-7.8.01-7.8-.13-7.8z" stroke="#000" stroke-width="2" stroke-linejoin="round" stroke-linecap="round" stroke-miterlimit="10" opacity=".25"/>
    <path d="M47.5 302.5v-.44l10 1.09 10-.59 10-.42 10 .26 10 .19 10-.32 10 .14 10 .67 10-.76 10-.51 10 .54 10 .04 10-.41 10-.03 10 1.29 10-1.32 10 1.14 10 .11 10-1.35 10 .24 10 1 10-.48 10 .39 10-1.11 10 .4 10 .82 10-.35 10-.23h.14l-.14 7.8.21 7.8-.22 7.8.16 7.8-.15 7.8v-.11l-10 .39-10-.71-10 .83-10-.71-10 .15-10-.44-10 .48h-10l-10 .67-10-.52-10 .37-10-.51-10-.34-10-.28-10 .47-10 .52-10 .45-10-.36-10-1.07-10 .24-10 .32-10 .4-10-.79-10 .84-10-.65-10 .29-10 .41-10-.34h.24l-.18-7.8.17-7.8-.11-7.8.01-7.8-.13-7.8z" fill="#f8cecc" stroke="#b85450" stroke-width="2" stroke-linejoin="round" stroke-linecap="round" stroke-miterlimit="10" pointer-events="none"/>
    <text x="37" y="12" text-anchor="middle" font-size="12" font-family="Courier New" transform="translate(150 315)">
        /boats/:id
    </text>
    <path d="M49.5 465.5v-.72l10 .48 10-.05 10-.19 10 .09 10-.27 10 1.32 10-.98 10 .64 10-.84 10 .28 10-.49 10 1.21 10-.89 10 .01 10 .68 10-.69 10 .86 10 .04 10 .14 10-.38 10-.27 10-.58 10 .68 10 .66 10-.81 10 .4 10-.76 10 .43h.12l-.27 7.8.39 7.8-.07 7.8-.06 7.8-.11 7.8v.32l-10-.84-10 .89-10 .36-10-.92-10 .6-10 .01-10 .01-10-.77-10-.11-10-.01-10 .27-10-.17-10 .72-10 .13-10-.2-10 .11-10-.39-10-.67-10-.03-10 .81-10 .46-10-.72-10 .37-10 .14-10-1.09-10 .95-10 .42-10-.65h.21l-.42-7.8.32-7.8.03-7.8-.35-7.8.21-7.8z" stroke="#000" stroke-width="2" stroke-linejoin="round" stroke-linecap="round" stroke-miterlimit="10" opacity=".25"/>
    <path d="M47.5 462.5v-.72l10 .48 10-.05 10-.19 10 .09 10-.27 10 1.32 10-.98 10 .64 10-.84 10 .28 10-.49 10 1.21 10-.89 10 .01 10 .68 10-.69 10 .86 10 .04 10 .14 10-.38 10-.27 10-.58 10 .68 10 .66 10-.81 10 .4 10-.76 10 .43h.12l-.27 7.8.39 7.8-.07 7.8-.06 7.8-.11 7.8v.32l-10-.84-10 .89-10 .36-10-.92-10 .6-10 .01-10 .01-10-.77-10-.11-10-.01-10 .27-10-.17-10 .72-10 .13-10-.2-10 .11-10-.39-10-.67-10-.03-10 .81-10 .46-10-.72-10 .37-10 .14-10-1.09-10 .95-10 .42-10-.65h.21l-.42-7.8.32-7.8.03-7.8-.35-7.8.21-7.8z" fill="#fff" stroke="#000" stroke-width="2" stroke-linejoin="round" stroke-linecap="round" stroke-miterlimit="10" pointer-events="none"/>
    <text x="55" y="12" text-anchor="middle" font-size="12" font-family="Courier New" transform="translate(132 475)">
        /realestate/:id
    </text>
    <path d="M327.5 561.5v-1.05l8 .01 8-.16 8 .32 8-.12h8.51l-.71-10.08.16-10.08.5-10.08-.08-10.08-.39-10.08.53-10.08-.64-10.08.21-10.08.46-10.08-.17-10.08-.3-10.08-.31-10.08.39-10.08.3-10.08-.96-10.08.5-10.08.28-10.08-.41-10.08-.06-10.08.93-10.08-.08-10.08-.37-10.08.26-10.08-1.29-10.08 1.46-10.08-.73-10.08-.61-10.08.01-10.08 1.2-10.08-1.3-10.08.61-10.08.51-10.08-.76-10.08.48-10.08.38-10.08.08-10.08-.56-10.08-.22-10.08-.37-10.08.93-10.08-.11-10.08-.14-10.08.06-10.08.36-10.08-1.06-10.08.65-10.08.07-10.08.4-10.08-.76-10.08.16-10.08v-.32l-10.43.88-10.44-.99-10.43.24-10.43.09-10.44-.42-10.43 1.07-10.43-.73-10.43.29-10.44-.12-10.43-.18-10.43.19" fill="none" stroke="#000" stroke-width="2" stroke-linejoin="round" stroke-linecap="round" stroke-miterlimit="10" pointer-events="none"/>
    <path d="M244.74 56.5l.06.2 1.52-.77 1.69-.27 1.51-.8 1.56-.67 1.66-.36h-.06l-.03 1.07.28 1.07-.42 1.06.09 1.07.14 1.07-.05-.13-1.57-.47-1.61-.56-1.56-.41-1.58-.47-1.63-.63z" stroke="#000" stroke-width="2" stroke-linejoin="round" stroke-linecap="round" stroke-miterlimit="10" pointer-events="none"/>
    <path d="M187.5 106.5h-.34l.42 9.61-.74 9.62.74 9.61-.76 9.62.31 9.61.11 9.62-.25 9.61 1.08 9.62-.97 9.61.23 9.62.17 9.61" fill="none" stroke="#000" stroke-width="2" stroke-linejoin="round" stroke-linecap="round" stroke-miterlimit="10" pointer-events="none"/>
    <path d="M187.5 220.26l-.21-.07-.15-1.47-.76-1.67-.56-1.61-.39-1.56-.6-1.62v.08l1.07-.09 1.07-.21 1.06.37 1.07-.06 1.07-.09.08.03-.51 1.61-.61 1.57-.52 1.61-.41 1.64-.7 1.54z" stroke="#000" stroke-width="2" stroke-linejoin="round" stroke-linecap="round" stroke-miterlimit="10" pointer-events="none"/>
    <path d="M187.5 261.5h-.03l-.19 6.15.29 6.16-.15 6.15.17 6.15-.09 6.15" fill="none" stroke="#000" stroke-width="2" stroke-linejoin="round" stroke-linecap="round" stroke-miterlimit="10" pointer-events="none"/>
    <path d="M187.5 300.26l-.1-.03-.48-1.58-.5-1.59-.39-1.55-.51-1.6-.69-1.65v-.09l1.07.29 1.07-.44 1.06.16 1.07-.08 1.07.16-.12-.04-.38 1.66-.79 1.51-.3 1.68-.62 1.57-.46 1.62z" stroke="#000" stroke-width="2" stroke-linejoin="round" stroke-linecap="round" stroke-miterlimit="10" pointer-events="none"/>
    <path d="M49.5 544.5v.2l10-.28 10 .66 10-.15h10l10-.74 10 .51 10-.4 10 .25 10 .47 10-.48 10-.19 10-.03 10-.28 10-.26 10 .69 10 .73 10-1.35 10 .34 10 .22 10 .34 10-.42 10-.52 10 .96 10-.35 10-.47 10 .64 10-.67 10 .58h-.01l.11 7.8.1 7.8-.01 7.8-.09 7.8-.1 7.8v.23l-10-.68-10 .97-10-.9-10-.21-10-.09-10 .03-10 1-10 .21-10-1.27-10 .62-10 .62-10-.09-10-1-10 .25-10-.13-10 .96-10 .21h-10l-10-1.08-10-.21-10 1.05-10-1.02-10 .42-10 .26-10 .18-10-.46-10-.39-10 .52h.09l-.29-7.8-.01-7.8.02-7.8.2-7.8-.01-7.8z" stroke="#000" stroke-width="2" stroke-linejoin="round" stroke-linecap="round" stroke-miterlimit="10" opacity=".25"/>
    <path d="M47.5 541.5v.2l10-.28 10 .66 10-.15h10l10-.74 10 .51 10-.4 10 .25 10 .47 10-.48 10-.19 10-.03 10-.28 10-.26 10 .69 10 .73 10-1.35 10 .34 10 .22 10 .34 10-.42 10-.52 10 .96 10-.35 10-.47 10 .64 10-.67 10 .58h-.01l.11 7.8.1 7.8-.01 7.8-.09 7.8-.1 7.8v.23l-10-.68-10 .97-10-.9-10-.21-10-.09-10 .03-10 1-10 .21-10-1.27-10 .62-10 .62-10-.09-10-1-10 .25-10-.13-10 .96-10 .21h-10l-10-1.08-10-.21-10 1.05-10-1.02-10 .42-10 .26-10 .18-10-.46-10-.39-10 .52h.09l-.29-7.8-.01-7.8.02-7.8.2-7.8-.01-7.8z" fill="#e1d5e7" stroke="#9673a6" stroke-width="2" stroke-linejoin="round" stroke-linecap="round" stroke-miterlimit="10" pointer-events="none"/>
    <text transform="translate(140 554)" x="47" y="12" text-anchor="middle" font-size="12" font-family="Courier New">
        Error handler
    </text>
    <path d="M47.5 322.5v.09l-7.8-.29-7.8.17-7.8.22-7.8-.31-7.8.12h.42l-.95 9.96.63 9.96-.17 9.96-.66 9.95-.01 9.96.26 9.96.87 9.96-.84 9.96.97 9.96-.88 9.95.98 9.96L7.86 442l1.39 9.96-1.31 9.96.03 9.96.59 9.95.65 9.96-1.01 9.96.15 9.96-.17 9.96-.05 9.96-.21 9.95.39 9.96.19 9.96v-.12l5.75.25 5.76.11 5.75-.11 5.75-.18 5.75.05" fill="none" stroke="#000" stroke-width="2" stroke-linejoin="round" stroke-linecap="round" stroke-miterlimit="10" pointer-events="none"/>
    <path d="M45.26 561.5l-1.52.75-1.62.49-1.72.17-1.5.83-1.64.43h-.05l-.01-1.07.13-1.07.12-1.06-.2-1.07.01-1.07.02.06 1.6.52 1.54.36 1.67.73 1.53.34 1.64.66z" stroke="#000" stroke-width="2" stroke-linejoin="round" stroke-linecap="round" stroke-miterlimit="10" pointer-events="none"/>
    <path fill="#fff" pointer-events="none" d="M158.5 115.5h60v20h-60z"/>
    <text transform="translate(163 119)" x="25" y="12" text-anchor="middle" font-size="12" font-family="Courier New">
        request
    </text>
    <path fill="#fff" pointer-events="none" d="M338.5 115.5h60v20h-60z"/>
    <text transform="translate(340 119)" x="29" y="12" text-anchor="middle" font-size="12" font-family="Courier New">
        response
    </text>
</svg>
