<svg viewBox="0 0 100% 100%" xmlns="http://www.w3.org/2000/svg">
    <path d="M138 32c-34 0-42.5 27.5-15.3 33-27.2 12.1 3.4 38.5 25.5 27.5 15.3 22 66.3 22 83.3 0 34 0 34-22 12.75-33 21.25-22-12.75-44-42.5-33C180.5 10 146.5 10 138 32z" stroke="#000" stroke-width="2" stroke-miterlimit="10" opacity=".25"/>
    <path d="M136 29c-34 0-42.5 27.5-15.3 33-27.2 12.1 3.4 38.5 25.5 27.5 15.3 22 66.3 22 83.3 0 34 0 34-22 12.75-33 21.25-22-12.75-44-42.5-33C178.5 7 144.5 7 136 29z" fill="#dae8fc" stroke="#9cf" stroke-width="2" stroke-miterlimit="10" pointer-events="none"/>
    <path d="M49.5 225.5v-.15l10 .86 10-.08 10-1.37 10 1.22 10-.94 10 1.07 10-1.2 10 1.02 10-.66 10-.47 10 .54 10 .49 10 .05 10-.64 10-.46 10 .99 10-.83 10 .21 10 .44 10 .52 10-.61 10 .35 10-.3 10-.47 10 .18 10 .93 10-.83 10 .14h-.16l.3 7.8-.05 7.8.01 7.8-.22 7.8.12 7.8v.11l-10-.67-10 .24-10 .99-10-1.28-10 .52-10-.38-10 1.17-10-1.21-10-.22-10 .22-10 .29-10-.22h-10l-10 .79-10-.55-10 .87-10-.53-10-.59-10-.16-10 .21-10-.35-10 .53-10 .55-10 .32-10-1.33-10 .9-10 .16-10-.38h-.07l.2-7.8-.24-7.8v-7.8l-.11-7.8.22-7.8z" stroke="#000" stroke-width="2" stroke-linejoin="round" stroke-linecap="round" stroke-miterlimit="10" opacity=".25"/>
    <path d="M47.5 222.5v-.15l10 .86 10-.08 10-1.37 10 1.22 10-.94 10 1.07 10-1.2 10 1.02 10-.66 10-.47 10 .54 10 .49 10 .05 10-.64 10-.46 10 .99 10-.83 10 .21 10 .44 10 .52 10-.61 10 .35 10-.3 10-.47 10 .18 10 .93 10-.83 10 .14h-.16l.3 7.8-.05 7.8.01 7.8-.22 7.8.12 7.8v.11l-10-.67-10 .24-10 .99-10-1.28-10 .52-10-.38-10 1.17-10-1.21-10-.22-10 .22-10 .29-10-.22h-10l-10 .79-10-.55-10 .87-10-.53-10-.59-10-.16-10 .21-10-.35-10 .53-10 .55-10 .32-10-1.33-10 .9-10 .16-10-.38h-.07l.2-7.8-.24-7.8v-7.8l-.11-7.8.22-7.8z" fill="#fff" stroke="#000" stroke-width="2" stroke-linejoin="round" stroke-linecap="round" stroke-miterlimit="10" pointer-events="none"/>
        <text transform="translate(165 235)" x="22" y="12" text-anchor="middle" font-size="12" font-family="Courier New">
            /boats
        </text>
    <path d="M49.5 388.5v.07l10-.56 10-.07 10 .83 10-.61 10 .47 10-.85 10 .96 10-.02 10 .35 10-.44 10-.38 10 .64 10-.01 10 .06 10-.17 10-.15 10-.43 10-.31 10 .76 10 .02 10-.64 10 .49 10-.68 10 .82 10-.27 10 .62 10-.41 10-.09h.03l-.14 7.2.12 7.2-.03 7.2-.19 7.2.21 7.2v.47l-10-.14-10-.6-10 .65-10-1.09-10 .18-10 .02-10 .58-10-.7-10 .13-10 1.11-10-.97-10-.25-10 1.06-10 .07-10-.44-10 .51-10-.85-10 .01-10 .31-10 .61-10-.99-10 .91-10-.65-10-.24-10 .5-10-.78-10 .09-10 .49h-.05l.25-7.2-.26-7.2.13-7.2-.31-7.2.24-7.2z" stroke="#000" stroke-width="2" stroke-linejoin="round" stroke-linecap="round" stroke-miterlimit="10" opacity=".25"/>
    <path d="M47.5 385.5v.07l10-.56 10-.07 10 .83 10-.61 10 .47 10-.85 10 .96 10-.02 10 .35 10-.44 10-.38 10 .64 10-.01 10 .06 10-.17 10-.15 10-.43 10-.31 10 .76 10 .02 10-.64 10 .49 10-.68 10 .82 10-.27 10 .62 10-.41 10-.09h.03l-.14 7.2.12 7.2-.03 7.2-.19 7.2.21 7.2v.47l-10-.14-10-.6-10 .65-10-1.09-10 .18-10 .02-10 .58-10-.7-10 .13-10 1.11-10-.97-10-.25-10 1.06-10 .07-10-.44-10 .51-10-.85-10 .01-10 .31-10 .61-10-.99-10 .91-10-.65-10-.24-10 .5-10-.78-10 .09-10 .49h-.05l.25-7.2-.26-7.2.13-7.2-.31-7.2.24-7.2z" fill="#fff" stroke="#000" stroke-width="2" stroke-linejoin="round" stroke-linecap="round" stroke-miterlimit="10" pointer-events="none"/>
        <text transform="translate(147 397)" x="40" y="12" text-anchor="middle" font-size="12" font-family="Courier New">
            /realestate
        </text>
    <path d="M49.5 305.5v-.08l10-.17 10-.33 10 .49 10 .04 10 .08 10 .14 10 .21 10-1.03 10 .65 10 .38 10-.32 10-.39 10 .26 10 .08 10 .41 10-.57 10-.56 10 .38 10 .59 10-.74 10 .89 10-1.04 10 .97 10-1 10 .68 10 .46 10-.26 10-.22h.17l.01 7.8v7.8l-.29 7.8-.07 7.8.18 7.8v.54l-10-.7-10 .88-10-1.14-10 .34-10 .25-10 .32-10-.9-10-.05-10-.14-10 .13-10-.21-10 .02-10 .82-10-.33-10 .18-10-.51-10-.17-10 .45-10 .16-10 .38-10-.18-10-.29-10 .8-10-1.32-10 1.13-10 .29-10-.08-10-.67h-.12l.18-7.8-.31-7.8.39-7.8-.04-7.8-.1-7.8z" stroke="#000" stroke-width="2" stroke-linejoin="round" stroke-linecap="round" stroke-miterlimit="10" opacity=".25"/>
    <path d="M47.5 302.5v-.08l10-.17 10-.33 10 .49 10 .04 10 .08 10 .14 10 .21 10-1.03 10 .65 10 .38 10-.32 10-.39 10 .26 10 .08 10 .41 10-.57 10-.56 10 .38 10 .59 10-.74 10 .89 10-1.04 10 .97 10-1 10 .68 10 .46 10-.26 10-.22h.17l.01 7.8v7.8l-.29 7.8-.07 7.8.18 7.8v.54l-10-.7-10 .88-10-1.14-10 .34-10 .25-10 .32-10-.9-10-.05-10-.14-10 .13-10-.21-10 .02-10 .82-10-.33-10 .18-10-.51-10-.17-10 .45-10 .16-10 .38-10-.18-10-.29-10 .8-10-1.32-10 1.13-10 .29-10-.08-10-.67h-.12l.18-7.8-.31-7.8.39-7.8-.04-7.8-.1-7.8z" fill="#fff" stroke="#000" stroke-width="2" stroke-linejoin="round" stroke-linecap="round" stroke-miterlimit="10" pointer-events="none"/>
        <text transform="translate(150 315)" x="37" y="12" text-anchor="middle" font-size="12" font-family="Courier New">
            /boats/:id
        </text>
    <path d="M49.5 465.5v.05l10 .55 10 .13 10-1.32 10 .91 10-.44 10 .19 10 .62 10-1.31 10-.12 10 1.2 10-.64 10 .73 10-1.03 10 .98 10-1.11 10 .69 10-.04 10-.46 10-.2h10l10 .04 10 .7 10-.09 10 .09 10-.66 10-.16 10 .72 10-.02h-.14l.3 7.8-.17 7.8.16 7.8-.3 7.8.15 7.8v-.22l-10-.26-10 .44-10-.51-10 .1-10 1h-10l-10 .05-10-1.1-10-.17-10-.02-10 .22-10-.19h-10l-10 .91-10-.52-10-.02-10 .84-10 .19-10-.32-10-.17-10-.98-10 .58-10 .48-10-1.01-10 .42-10 .84-10-.9-10 .32h.23l-.43-7.8.36-7.8-.15-7.8.21-7.8-.22-7.8z" stroke="#000" stroke-width="2" stroke-linejoin="round" stroke-linecap="round" stroke-miterlimit="10" opacity=".25"/>
    <path d="M47.5 462.5v.05l10 .55 10 .13 10-1.32 10 .91 10-.44 10 .19 10 .62 10-1.31 10-.12 10 1.2 10-.64 10 .73 10-1.03 10 .98 10-1.11 10 .69 10-.04 10-.46 10-.2h10l10 .04 10 .7 10-.09 10 .09 10-.66 10-.16 10 .72 10-.02h-.14l.3 7.8-.17 7.8.16 7.8-.3 7.8.15 7.8v-.22l-10-.26-10 .44-10-.51-10 .1-10 1h-10l-10 .05-10-1.1-10-.17-10-.02-10 .22-10-.19h-10l-10 .91-10-.52-10-.02-10 .84-10 .19-10-.32-10-.17-10-.98-10 .58-10 .48-10-1.01-10 .42-10 .84-10-.9-10 .32h.23l-.43-7.8.36-7.8-.15-7.8.21-7.8-.22-7.8z" fill="#fff" stroke="#000" stroke-width="2" stroke-linejoin="round" stroke-linecap="round" stroke-miterlimit="10" pointer-events="none"/>
        <text transform="translate(132 475)" x="55" y="12" text-anchor="middle" font-size="12" font-family="Courier New">
            /realestate/:id
        </text>
    <path d="M327.5 561.5v-1 .14l8 .02 8-.33 8-.06 8 .43 8-.2h-.58l.79-10.08.08-10.08-.58-10.08.2-10.08-.42-10.08.61-10.08-.27-10.08.42-10.08.36-10.08-.29-10.08-1-10.08.85-10.08-.8-10.08 1.21-10.08-.58-10.08-.05-10.08-.59-10.08.61-10.08-.41-10.08.01-10.08.39-10.08.68-10.08-.29-10.08-.35-10.08.08-10.08-.27-10.08.86-10.08-.05-10.08-.13-10.08-1.04-10.08.69-10.08-.53-10.08.31-10.08.62-10.08-1.05-10.08.27-10.08.52-10.08.21-10.08-.26-10.08.41-10.08-.79-10.08.37-10.08-.73-10.08.68-10.08.03-10.08-.78-10.08.87-10.08-.01-10.08-.25-10.08-.03-10.08v-.65l-10.43.51-10.44-.43-10.43.99-10.43-.61-10.44.54-10.43-.93-10.43 1.06-10.43-.96-10.44.77-10.43-.08-10.43-.21" fill="none" stroke="#000" stroke-width="2" stroke-linejoin="round" stroke-linecap="round" stroke-miterlimit="10" pointer-events="none"/>
    <path d="M244.74 56.5l-.08-.22 1.7-.23 1.51-.81 1.74-.13 1.56-.64 1.57-.64h-.17l-.05 1.07.37 1.07.08 1.06-.3 1.07.07 1.07-.03-.09-1.59-.51-1.57-.44-1.64-.64-1.54-.35-1.63-.64z" stroke="#000" stroke-width="2" stroke-linejoin="round" stroke-linecap="round" stroke-miterlimit="10" pointer-events="none"/>
    <path d="M187.5 106.5h.05l-.27 4.95.31 4.96-.29 4.95-.04 4.95.24 4.95" fill="none" stroke="#000" stroke-width="2" stroke-linejoin="round" stroke-linecap="round" stroke-miterlimit="10" pointer-events="none"/>
    <path d="M187.5 139.26h-.02l-.61-1.63-.31-1.52-.46-1.58-.69-1.65-.58-1.62v-.12l1.07.02 1.07.3 1.06-.31 1.07.06 1.07.05.16.06-.78 1.52-.52 1.6-.55 1.59-.46 1.63-.52 1.6z" stroke="#000" stroke-width="2" stroke-linejoin="round" stroke-linecap="round" stroke-miterlimit="10" pointer-events="none"/>
    <path d="M49.5 544.5v.52l10-1.17 10-.05 10 .41 10-.38 10 1.13 10-.83 10 .42 10 .27 10-.43 10 .19 10-.48 10 .77 10-.07 10-1.05 10 .53 10-.5 10 .92 10 .08 10 .07 10-.06 10 .15 10-.67 10-.22 10 .24 10 .94 10-1.41 10 .55 10 .13h-.07l.05 7.8.02 7.8.25 7.8-.35 7.8.1 7.8v-.66l-10 .83-10 .43-10-1.24-10 .92-10 .43-10-.49-10 .27-10-.4-10-.74-10 .44-10 .78-10-1.29-10 .99-10-.76-10 .81-10-1.04-10 .4-10-.39-10 .15-10 .88-10 .32-10-.99-10 .14-10 .75-10-.09-10-.18-10-.15-10-.12h-.01l.2-7.8-.4-7.8.15-7.8.14-7.8-.08-7.8z" stroke="#000" stroke-width="2" stroke-linejoin="round" stroke-linecap="round" stroke-miterlimit="10" opacity=".25"/>
    <path d="M47.5 541.5v.52l10-1.17 10-.05 10 .41 10-.38 10 1.13 10-.83 10 .42 10 .27 10-.43 10 .19 10-.48 10 .77 10-.07 10-1.05 10 .53 10-.5 10 .92 10 .08 10 .07 10-.06 10 .15 10-.67 10-.22 10 .24 10 .94 10-1.41 10 .55 10 .13h-.07l.05 7.8.02 7.8.25 7.8-.35 7.8.1 7.8v-.66l-10 .83-10 .43-10-1.24-10 .92-10 .43-10-.49-10 .27-10-.4-10-.74-10 .44-10 .78-10-1.29-10 .99-10-.76-10 .81-10-1.04-10 .4-10-.39-10 .15-10 .88-10 .32-10-.99-10 .14-10 .75-10-.09-10-.18-10-.15-10-.12h-.01l.2-7.8-.4-7.8.15-7.8.14-7.8-.08-7.8z" fill="#e1d5e7" stroke="#9673a6" stroke-width="2" stroke-linejoin="round" stroke-linecap="round" stroke-miterlimit="10" pointer-events="none"/>
        <text transform="translate(140 554)" x="47" y="12" text-anchor="middle" font-size="12" font-family="Courier New">
            Error handler
        </text>
    <path d="M47.5 161.5v.2l-7.8-.16-7.8-.18-7.8.2-7.8.12-7.8-.18h-.62l-.06 10 .9 10 .14 10-.4 10 .27 10-.38 10 .46 10 .1 10-1.13 10 .7 10 .34 10-.95 10 1.22 10-.37 10-.67 10-.2 10 1.36 10-.1 10-1.01 10 .89 10-.18 10 .04 10-.82 10-.13 10 1.04 10 .18 10-.64 10-.2 10-.12 10 .41 10 .02 10-.01 10 .5 10-.05 10-.48 10 .31 10-.4 10-.41 10 .74 10-.29 10v-.23l5.75.26 5.76-.19 5.75.11 5.75.27 5.75-.22" fill="none" stroke="#000" stroke-width="2" stroke-linejoin="round" stroke-linecap="round" stroke-miterlimit="10" pointer-events="none"/>
    <path d="M45.26 561.5l.06.15-1.66.38-1.56.63-1.7.24-1.54.71-1.6.56h.22l-.05-1.07-.28-1.07v-1.06l.23-1.07-.12-1.07-.03-.11 1.58.48 1.62.61 1.68.75 1.5.25 1.65.69z" stroke="#000" stroke-width="2" stroke-linejoin="round" stroke-linecap="round" stroke-miterlimit="10" pointer-events="none"/>
    <path d="M49.5 144.5v-.56l10 .87 10-.2 10-.78 10 .63 10-.7 10 .25 10-.11 10 .24 10 1.08 10-.51 10-.14 10-.23 10-.31 10 .41 10-.06 10 .84 10-.63 10-.65 10 .91 10 .4 10-.51 10-.17 10-.67 10 .52 10-.61 10 .34 10 .42 10-.07h-.2l.08 7.8.22 7.8-.13 7.8.15 7.8-.12 7.8v-.04l-10 .5-10-.34h-10l-10 .38-10-.39-10 .58h-10l-10-.04-10-.06-10 .12-10-.04-10-1.37-10 .48-10 .21-10 .17-10-.5-10-.18-10 .61-10-.14-10 .28-10-.87-10 .56-10-.14-10 .25-10 .27-10-.08-10-.88-10 .66h-.19l.02-7.8-.04-7.8.07-7.8.35-7.8-.21-7.8z" stroke="#000" stroke-width="2" stroke-linejoin="round" stroke-linecap="round" stroke-miterlimit="10" opacity=".25"/>
    <path d="M47.5 141.5v-.56l10 .87 10-.2 10-.78 10 .63 10-.7 10 .25 10-.11 10 .24 10 1.08 10-.51 10-.14 10-.23 10-.31 10 .41 10-.06 10 .84 10-.63 10-.65 10 .91 10 .4 10-.51 10-.17 10-.67 10 .52 10-.61 10 .34 10 .42 10-.07h-.2l.08 7.8.22 7.8-.13 7.8.15 7.8-.12 7.8v-.04l-10 .5-10-.34h-10l-10 .38-10-.39-10 .58h-10l-10-.04-10-.06-10 .12-10-.04-10-1.37-10 .48-10 .21-10 .17-10-.5-10-.18-10 .61-10-.14-10 .28-10-.87-10 .56-10-.14-10 .25-10 .27-10-.08-10-.88-10 .66h-.19l.02-7.8-.04-7.8.07-7.8.35-7.8-.21-7.8z" fill="#f8cecc" stroke="#b85450" stroke-width="2" stroke-linejoin="round" stroke-linecap="round" stroke-miterlimit="10" pointer-events="none"/>
        <text transform="translate(118 154)" x="69" y="12" text-anchor="middle" font-size="12" font-family="Courier New">
            Security middelware
        </text>
</svg>
