<svg viewBox="0 0 100% 100%" xmlns="http://www.w3.org/2000/svg">
 <path style="opacity:.05;stroke-linejoin:round;stroke:#000;stroke-linecap:round;stroke-miterlimit:10;stroke-dasharray:6, 6;stroke-width:2" stroke-miterlimit="10" d="m3.75 363.76v-.51l9.84.48 9.85.42 9.84-.85 9.85.77 9.84-.88 9.84.12 9.85.82 9.84-.51 9.84.89 9.85-.08 9.84-1.35 9.85.76 9.84.32 9.84-.76 9.85.01 9.84.96 9.84-.25 9.85-.02 9.84-.12 9.85.42 9.84-1.3 9.84 1.34 9.85-.1 9.84-.93 9.84.36 9.85-.3 9.84 1.03 9.85-.64 9.84.65 9.84-.33 9.85-.09 9.84-.33h-.31l.14 9.93.05 9.93.01 9.93.85 9.92-1.35 9.93.46 9.93-.31 9.93-.2 9.93-.09 9.93.25 9.93.49 9.92.52 9.93-.45 9.93-.06 9.93v-.16l-9.84-.23-9.85 1.02-9.84-.56-9.84.25-9.85-.59-9.84.71-9.85-.99-9.84 1.18-9.84-.13-9.85-.73-9.84.69-9.84-.15-9.85-.43-9.84.41-9.85-.72-9.84.24-9.84.46-9.85-.34-9.84.41-9.84-.45-9.85.45-9.84-.62-9.85.6-9.84.01-9.84-.51-9.85-.13-9.84.13-9.84-.18-9.85.45-9.84-.74-9.85.28-9.84.37h-.75l.47-9.93.25-9.93.12-9.93-.46-9.92.76-9.93.33-9.93-.45-9.93-.84-9.93.43-9.93.36-9.93.18-9.92-.23-9.93.5-9.93-.67-9.93z"/>
 <path style="stroke-linejoin:round;opacity:.05;stroke:#82b366;stroke-linecap:round;stroke-miterlimit:10;stroke-dasharray:6, 6;stroke-width:2;fill:#d5e8d4" d="m1.75 360.76v-.51l9.84.48 9.85.42 9.84-.85 9.85.77 9.84-.88 9.84.12 9.85.82 9.84-.51 9.84.89 9.85-.08 9.84-1.35 9.85.76 9.84.32 9.84-.76 9.85.01 9.84.96 9.84-.25 9.85-.02 9.84-.12 9.85.42 9.84-1.3 9.84 1.34 9.85-.1 9.84-.93 9.84.36 9.85-.3 9.84 1.03 9.85-.64 9.84.65 9.84-.33 9.85-.09 9.84-.33h-.31l.14 9.93.05 9.93.01 9.93.85 9.92-1.35 9.93.46 9.93-.31 9.93-.2 9.93-.09 9.93.25 9.93.49 9.92.52 9.93-.45 9.93-.06 9.93v-.16l-9.84-.23-9.85 1.02-9.84-.56-9.84.25-9.85-.59-9.84.71-9.85-.99-9.84 1.18-9.84-.13-9.85-.73-9.84.69-9.84-.15-9.85-.43-9.84.41-9.85-.72-9.84.24-9.84.46-9.85-.34-9.84.41-9.84-.45-9.85.45-9.84-.62-9.85.6-9.84.01-9.84-.51-9.85-.13-9.84.13-9.84-.18-9.85.45-9.84-.74-9.85.28-9.84.37h-0.75l0.47-9.93.25-9.93.12-9.93-.46-9.92.76-9.93.33-9.93-.45-9.93-.84-9.93.43-9.93.36-9.93.18-9.92-.23-9.93.5-9.93-.67-9.93z" pointer-events="none" stroke-miterlimit="10"/>
 <text y="435.26181" x="158.25" font-size="12" style="opacity:.05;font-size:12px;font-family:&apos;Courier New&apos;;text-anchor:middle">Router</text>
 <path style="opacity:.05;stroke-linejoin:round;stroke:#000;stroke-linecap:round;stroke-miterlimit:10;stroke-dasharray:6, 6;stroke-width:2" stroke-miterlimit="10" d="m3.75 204.76v.53l9.84-.92 9.85.59 9.84-.09 9.85-.73 9.84.88 9.84-.27 9.85-.13 9.84-.54 9.84.11 9.85 1 9.84-.7 9.85.7 9.84.28 9.84-.01 9.85-.46 9.84-.38 9.84.72 9.85-.36 9.84.15 9.85-1.09 9.84.21 9.84.65 9.85-.57 9.84 1.09 9.84-.56 9.85.21 9.84-.92 9.85-.07 9.84.34 9.84.32 9.85.04 9.84-.02h.25l.29 9.93-.42 9.93.29 9.93-.46 9.92.47 9.93.03 9.93-.77 9.93.75 9.93-.77 9.93.22 9.93.69 9.92-.63 9.93-.3 9.93.36 9.93v-.1l-9.84-.03-9.85.72-9.84-.12-9.84-1.16-9.85.51-9.84-.45-9.85.61-9.84-.17-9.84.38-9.85-.11-9.84.56-9.84-.39-9.85-.7-9.84-.05-9.85 1.01-9.84-.97-9.84.07-9.85-.34-9.84 1.15-9.84-.51-9.85-.46-9.84-.19-9.85 1.32-9.84-.1-9.84-1.2-9.85.72-9.84-.32-9.84.67-9.85-.58-9.84-.1-9.85.32-9.84.01h-.42l.35-9.93-.1-9.93-.07-9.93-.31-9.92 1.04-9.93-.91-9.93.33-9.93-.32-9.93.46-9.93-.25-9.93.49-9.92-.31-9.93-.1-9.93.12-9.93z"/>
 <path style="stroke-linejoin:round;opacity:.05;stroke:#82b366;stroke-linecap:round;stroke-miterlimit:10;stroke-dasharray:6, 6;stroke-width:2;fill:#d5e8d4" d="m1.75 201.76v.53l9.84-.92 9.85.59 9.84-.09 9.85-.73 9.84.88 9.84-.27 9.85-.13 9.84-.54 9.84.11 9.85 1 9.84-.7 9.85.7 9.84.28 9.84-.01 9.85-.46 9.84-.38 9.84.72 9.85-.36 9.84.15 9.85-1.09 9.84.21 9.84.65 9.85-.57 9.84 1.09 9.84-.56 9.85.21 9.84-.92 9.85-.07 9.84.34 9.84.32 9.85.04 9.84-.02h.25l.29 9.93-.42 9.93.29 9.93-.46 9.92.47 9.93.03 9.93-.77 9.93.75 9.93-.77 9.93.22 9.93.69 9.92-.63 9.93-.3 9.93.36 9.93v-.1l-9.84-.03-9.85.72-9.84-.12-9.84-1.16-9.85.51-9.84-.45-9.85.61-9.84-.17-9.84.38-9.85-.11-9.84.56-9.84-.39-9.85-.7-9.84-.05-9.85 1.01-9.84-.97-9.84.07-9.85-.34-9.84 1.15-9.84-.51-9.85-.46-9.84-.19-9.85 1.32-9.84-.1-9.84-1.2-9.85.72-9.84-.32-9.84.67-9.85-.58-9.84-.1-9.85.32-9.84.01h-.42l.35-9.93-.1-9.93-.07-9.93-.31-9.92 1.04-9.93-.91-9.93.33-9.93-.32-9.93.46-9.93-.25-9.93.49-9.92-.31-9.93-.1-9.93.12-9.93z" pointer-events="none" stroke-miterlimit="10"/>
 <text y="276.26181" x="158.25" font-size="12" style="opacity:.05;font-size:12px;font-family:&apos;Courier New&apos;;text-anchor:middle">Router</text>
 <path style="opacity:.25;stroke:#000;stroke-width:2;stroke-miterlimit:10" stroke-miterlimit="10" d="m109.25 21.262c-34 0-42.5 27.5-15.3 33-27.2 12.1 3.4 38.5 25.5 27.5 15.3 22 66.3 22 83.3 0 34 0 34-22 12.75-33 21.25-22-12.75-44-42.5-33-21.25-16.5-55.25-16.5-63.75 5.5z"/>
 <path style="stroke:#9cf;stroke-width:2;stroke-miterlimit:10;fill:#dae8fc" d="m107.25 18.262c-34 0-42.5 27.5-15.3 33-27.2 12.1 3.4 38.5 25.5 27.5 15.3 22 66.3 22 83.3 0 34 0 34-22 12.75-33 21.25-22-12.75-44-42.5-33-21.25-16.5-55.25-16.5-63.75 5.5z" pointer-events="none" stroke-miterlimit="10"/>
 <path style="opacity:.05;stroke-linejoin:round;stroke:#000;stroke-linecap:round;stroke-miterlimit:10;stroke-width:2" stroke-miterlimit="10" d="m20.75 214.76v.15l10-.54 10 .36 10-.62 10 .87 10-.6 10 1.04 10-.25 10-.66 10 .15 10 .67 10-.97 10 .08 10-.01 10 .62 10-.42 10-.45 10-.04 10 .57 10 .54 10-.11 10 .17 10-.96 10 1.11 10-.87 10 .5 10-.79 10 .98 10-.52h-.13l.3 7.8-.05 7.8v7.8l-.08 7.8-.04 7.8v.46l-10 .28-10-.58-10-.59-10-.04-10 .9-10-.24-10 .52-10-1.07-10 .77-10-1.01-10 .07-10 .94-10-.29-10 .61-10-.89-10-.14-10-.07-10-.34-10 1.16-10-1.14-10 .22-10-.05-10 .16-10 .17-10-.17-10 .74-10-.43-10 .05h.1l.04-7.8-.07-7.8-.26-7.8.15-7.8.04-7.8z"/>
 <path style="stroke-linejoin:round;opacity:.05;stroke:#000;stroke-linecap:round;stroke-miterlimit:10;stroke-width:2;fill:#fff" d="m18.75 211.76v.15l10-.54 10 .36 10-.62 10 .87 10-.6 10 1.04 10-.25 10-.66 10 .15 10 .67 10-.97 10 .08 10-.01 10 .62 10-.42 10-.45 10-.04 10 .57 10 .54 10-.11 10 .17 10-.96 10 1.11 10-.87 10 .5 10-.79 10 .98 10-.52h-.13l.3 7.8-.05 7.8v7.8l-.08 7.8-.04 7.8v.46l-10 .28-10-.58-10-.59-10-.04-10 .9-10-.24-10 .52-10-1.07-10 .77-10-1.01-10 .07-10 .94-10-.29-10 .61-10-.89-10-.14-10-.07-10-.34-10 1.16-10-1.14-10 .22-10-.05-10 .16-10 .17-10-.17-10 .74-10-.43-10 .05h.1l.04-7.8-.07-7.8-.26-7.8.15-7.8.04-7.8z" pointer-events="none" stroke-miterlimit="10"/>
 <text y="236.26183" x="158.25" font-size="12" style="opacity:.05;font-size:12px;font-family:&apos;Courier New&apos;;text-anchor:middle">/boats</text>
 <path style="opacity:.05;stroke-linejoin:round;stroke:#000;stroke-linecap:round;stroke-miterlimit:10;stroke-width:2" stroke-miterlimit="10" d="m20.75 377.76v-.04l10 .73 10-.5 10 .53 10-1.26 10-.13 10 .88 10-.15 10-.71 10 1.24 10-.74 10 .3 10-.83 10-.06 10 1.24 10-.47 10-.48 10-.19 10 .07 10 .07 10 .57 10-.81 10 1.31 10-.79 10 .47 10-.93 10 1.09 10-.98 10 .57h-.09l-.04 7.2-.01 7.2.31 7.2-.3 7.2.13 7.2v-.16l-10 .55-10-.32-10 .01-10-.38-10-.26-10 .11-10 .35-10-.54-10 .08-10 1.08-10-.79-10 .98-10-1.18-10 .49-10-.75-10 .91-10-.68-10 1.06-10 .04-10-.3-10-.8-10 .65-10-.52-10 .89-10-.78-10 .75-10-.43-10-.06h.19l-.03-7.2-.14-7.2.05-7.2-.04-7.2-.03-7.2z"/>
 <path style="stroke-linejoin:round;opacity:.05;stroke:#000;stroke-linecap:round;stroke-miterlimit:10;stroke-width:2;fill:#fff" d="m18.75 374.76v-.04l10 .73 10-.5 10 .53 10-1.26 10-.13 10 .88 10-.15 10-.71 10 1.24 10-.74 10 .3 10-.83 10-.06 10 1.24 10-.47 10-.48 10-.19 10 .07 10 .07 10 .57 10-.81 10 1.31 10-.79 10 .47 10-.93 10 1.09 10-.98 10 .57h-.09l-.04 7.2-.01 7.2.31 7.2-.3 7.2.13 7.2v-.16l-10 .55-10-.32-10 .01-10-.38-10-.26-10 .11-10 .35-10-.54-10 .08-10 1.08-10-.79-10 .98-10-1.18-10 .49-10-.75-10 .91-10-.68-10 1.06-10 .04-10-.3-10-.8-10 .65-10-.52-10 .89-10-.78-10 .75-10-.43-10-.06h.19l-.03-7.2-.14-7.2.05-7.2-.04-7.2-.03-7.2z" pointer-events="none" stroke-miterlimit="10"/>
 <text y="398.26181" x="158.25" font-size="12" style="opacity:.05;font-size:12px;font-family:&apos;Courier New&apos;;text-anchor:middle">/realestate</text>
 <path style="opacity:.05;stroke-linejoin:round;stroke:#000;stroke-linecap:round;stroke-miterlimit:10;stroke-width:2" stroke-miterlimit="10" d="m20.75 294.76v-.56l10 .28 10 .25 10-.08 10-.54 10 .03 10 .1 10 .06 10 .76 10 .04 10-.53 10 .51 10-1.02 10 .08 10 .79 10-.11 10-.38 10 .69 10-.55 10 .22 10-.05 10-.61 10 .17 10-.16 10 .04 10 1.11 10-.37 10-.05 10-.12h.09l-.15 7.8.13 7.8-.3 7.8.25 7.8-.02 7.8v.15l-10-.84-10 .94-10 .43-10-1.43-10 .13-10 1.07-10-.53-10 .04-10-.19-10-.28-10 .03-10 .34-10-.18-10-.41-10 1.13-10 .29-10-.94-10-.4-10 .02-10 .86-10-.07-10-.13-10-.61-10 1.08-10-.49-10-.19-10 .69-10-.51h-.21l.03-7.8.28-7.8.14-7.8-.01-7.8-.23-7.8z"/>
 <path style="stroke-linejoin:round;opacity:.05;stroke:#000;stroke-linecap:round;stroke-miterlimit:10;stroke-width:2;fill:#fff" d="m18.75 291.76v-.56l10 .28 10 .25 10-.08 10-.54 10 .03 10 .1 10 .06 10 .76 10 .04 10-.53 10 .51 10-1.02 10 .08 10 .79 10-.11 10-.38 10 .69 10-.55 10 .22 10-.05 10-.61 10 .17 10-.16 10 .04 10 1.11 10-.37 10-.05 10-.12h.09l-.15 7.8.13 7.8-.3 7.8.25 7.8-.02 7.8v.15l-10-.84-10 .94-10 .43-10-1.43-10 .13-10 1.07-10-.53-10 .04-10-.19-10-.28-10 .03-10 .34-10-.18-10-.41-10 1.13-10 .29-10-.94-10-.4-10 .02-10 .86-10-.07-10-.13-10-.61-10 1.08-10-.49-10-.19-10 .69-10-.51h-.21l.03-7.8.28-7.8.14-7.8-.01-7.8-.23-7.8z" pointer-events="none" stroke-miterlimit="10"/>
 <text y="316.26181" x="158.25" font-size="12" style="opacity:.05;font-size:12px;font-family:&apos;Courier New&apos;;text-anchor:middle">/boats/:id</text>
 <path style="opacity:.05;stroke-linejoin:round;stroke:#000;stroke-linecap:round;stroke-miterlimit:10;stroke-width:2" stroke-miterlimit="10" d="m20.75 454.76v.18l10 .48 10-1.25 10-.12 10 1.13 10-.11 10 .04 10-1.06 10 .99 10-.03 10-.86 10 1.26 10-1.16 10 .89 10-.47 10-.14 10 .12 10-.46 10 .4 10 .42 10-.78 10 .47 10 .02 10 .66 10-.94 10-.19 10 .26 10 .05 10 .2h-.12l.24 7.8-.29 7.8.04 7.8.14 7.8-.01 7.8v.22l-10-.2-10-.59-10 .71-10-.43-10 .24-10-.04-10-.55-10 .59-10-.53-10-.04-10 .85-10 .16-10-.38-10 .58-10-.43-10 .09-10-.33-10 .44-10-.41-10 .35-10-.55-10 .14-10 .48-10-.71-10-.02-10 .09-10 .3-10-.03h.06l.19-7.8-.4-7.8.09-7.8-.1-7.8.16-7.8z"/>
 <path style="stroke-linejoin:round;opacity:.05;stroke:#000;stroke-linecap:round;stroke-miterlimit:10;stroke-width:2;fill:#fff" d="m18.75 451.76v.18l10 .48 10-1.25 10-.12 10 1.13 10-.11 10 .04 10-1.06 10 .99 10-.03 10-.86 10 1.26 10-1.16 10 .89 10-.47 10-.14 10 .12 10-.46 10 .4 10 .42 10-.78 10 .47 10 .02 10 .66 10-.94 10-.19 10 .26 10 .05 10 .2h-.12l.24 7.8-.29 7.8.04 7.8.14 7.8-.01 7.8v.22l-10-.2-10-.59-10 .71-10-.43-10 .24-10-.04-10-.55-10 .59-10-.53-10-.04-10 .85-10 .16-10-.38-10 .58-10-.43-10 .09-10-.33-10 .44-10-.41-10 .35-10-.55-10 .14-10 .48-10-.71-10-.02-10 .09-10 .3-10-.03h.06l.19-7.8-.4-7.8.09-7.8-.1-7.8.16-7.8z" pointer-events="none" stroke-miterlimit="10"/>
 <text y="476.26181" x="158.25" font-size="12" style="opacity:.05;font-size:12px;font-family:&apos;Courier New&apos;;text-anchor:middle">/realestate/:id</text>
 <path style="opacity:.25;stroke-linejoin:round;stroke:#000;stroke-linecap:round;stroke-miterlimit:10;stroke-width:2" stroke-miterlimit="10" d="m20.75 533.76v-.12l10-.1 10 .27 10 .44 10 .07 10-1.19 10 1.26 10 .07 10-.78 10-.27 10 .22 10 .31 10-.92 10 1.25 10-.02 10-.99 10 .29 10 .59 10-.59 10 .08 10 .59 10-.28 10-.29 10 .13 10 .29 10 .13 10 .1 10-.25 10-.29h.22l.02 7.8-.22 7.8.03 7.8-.09 7.8.04 7.8v-.13l-10-.47-10 1.27-10-.39-10-.54-10 .26-10 .34-10-.18-10-.68-10 .64-10-.59-10 .56-10 .07-10 .57-10-.13-10-.78-10 .01-10-.41-10 .78-10-.79-10 .59-10 .16-10 .09-10-.7-10 .09-10-.18-10 1.27-10-.12-10-.61h.16l-.32-7.8.29-7.8.02-7.8.09-7.8-.24-7.8z"/>
 <path style="stroke-linejoin:round;stroke:#9673a6;stroke-linecap:round;stroke-miterlimit:10;stroke-width:2;fill:#e1d5e7" d="m18.75 530.76v-.12l10-.1 10 .27 10 .44 10 .07 10-1.19 10 1.26 10 .07 10-.78 10-.27 10 .22 10 .31 10-.92 10 1.25 10-.02 10-.99 10 .29 10 .59 10-.59 10 .08 10 .59 10-.28 10-.29 10 .13 10 .29 10 .13 10 .1 10-.25 10-.29h.22l.02 7.8-.22 7.8.03 7.8-.09 7.8.04 7.8v-.13l-10-.47-10 1.27-10-.39-10-.54-10 .26-10 .34-10-.18-10-.68-10 .64-10-.59-10 .56-10 .07-10 .57-10-.13-10-.78-10 .01-10-.41-10 .78-10-.79-10 .59-10 .16-10 .09-10-.7-10 .09-10-.18-10 1.27-10-.12-10-.61h.16l-.32-7.8.29-7.8.02-7.8.09-7.8-.24-7.8z" pointer-events="none" stroke-miterlimit="10"/>
 <text y="555.26184" x="158.25" font-size="12" style="font-size:12px;font-family:&apos;Courier New&apos;;text-anchor:middle">Error handler</text>
 <path style="opacity:.25;stroke-linejoin:round;stroke:#000;stroke-linecap:round;stroke-miterlimit:10;stroke-width:2" stroke-miterlimit="10" d="m20.75 133.76v.13l10-.09 10 .7 10-.32 10-.61 10 .69 10-.03 10-1.03 10 1.22 10-.1 10-.02 10-.55 10-.49 10 .12 10 .4 10 .35 10-1.11 10 .92 10-.46 10-.19 10-.03 10 .55 10-.23 10 .03 10-.55 10 .75 10-.65 10 .78 10-.18h.11l-.22 7.8.04 7.8-.12 7.8.28 7.8-.09 7.8v.65l-10-.8-10 .31-10 .41-10 .02-10-1.28-10 .88-10-.85-10-.07-10 .82-10-.26-10 .33-10-.42-10 .53-10-.65-10-.01-10-.24-10-.07-10 .08-10 .53-10-.17-10 .2-10 .02-10 .63-10-.08-10-.6-10-.26-10 .91-10-.56h-.2l.34-7.8-.1-7.8-.21-7.8.1-7.8.07-7.8z"/>
 <path style="stroke-linejoin:round;stroke:#d79b00;stroke-linecap:round;stroke-miterlimit:10;stroke-width:2;fill:#ffe6cc" d="m18.75 130.76v.13l10-.09 10 .7 10-.32 10-.61 10 .69 10-.03 10-1.03 10 1.22 10-.1 10-.02 10-.55 10-.49 10 .12 10 .4 10 .35 10-1.11 10 .92 10-.46 10-.19 10-.03 10 .55 10-.23 10 .03 10-.55 10 .75 10-.65 10 .78 10-.18h.11l-.22 7.8.04 7.8-.12 7.8.28 7.8-.09 7.8v.65l-10-.8-10 .31-10 .41-10 .02-10-1.28-10 .88-10-.85-10-.07-10 .82-10-.26-10 .33-10-.42-10 .53-10-.65-10-.01-10-.24-10-.07-10 .08-10 .53-10-.17-10 .2-10 .02-10 .63-10-.08-10-.6-10-.26-10 .91-10-.56h-.2l.34-7.8-.1-7.8-.21-7.8.1-7.8.07-7.8z" pointer-events="none" stroke-miterlimit="10"/>
 <text y="155.26183" x="158.25" font-size="12" style="font-size:12px;font-family:&apos;Courier New&apos;;text-anchor:middle">Security middelware</text>
</svg>
