<svg viewBox="0 0 100% 100%" xmlns="http://www.w3.org/2000/svg">
    <path d="M122.5 380.5v-.1l9.84.27 9.85.21 9.84-.48 9.85-.44 9.84.56 9.84-.47 9.85-.28 9.84.94 9.84-.24 9.85.69 9.84-1.03 9.85.14 9.84-.34 9.84 1.16 9.85-.13 9.84-.25 9.84-.59 9.85.86 9.84-.85 9.85.63 9.84-.41 9.84-.49 9.85.58 9.84.47 9.84.15 9.85-.57 9.84-.51 9.85.3 9.84.75 9.84-.99 9.85.53 9.84-.07h.4l-1.07 9.93.65 9.93-.3 9.93.92 9.92-1.3 9.93 1.23 9.93-.27 9.93.09 9.93-.8 9.93.42 9.93.7 9.92-.51 9.93.16 9.93-.32 9.93v-.44l-9.84 1-9.85-.79-9.84-.27-9.84.47-9.85.27-9.84.09-9.85-.57-9.84-.15-9.84.94-9.85-.16-9.84-.21-9.84.07-9.85-.03-9.84-.27-9.85-.51-9.84-.04-9.84.65-9.85-.15-9.84.49-9.84-.79-9.85.76-9.84-.46-9.85.51-9.84-.45-9.84-.21-9.85.3-9.84.52-9.84-.58-9.85.03-9.84.48-9.85-.3-9.84-.2h-.69l1.18-9.93-.15-9.93v-9.93l-.78-9.92-.25-9.93.05-9.93.88-9.93.14-9.93-1.02-9.93.8-9.93.48-9.92-1.11-9.93-.13-9.93.6-9.93z" stroke="#000" stroke-width="2" stroke-linejoin="round" stroke-linecap="round" stroke-miterlimit="10" stroke-dasharray="6 6" opacity=".25"/>
    <path d="M120.5 377.5v-.1l9.84.27 9.85.21 9.84-.48 9.85-.44 9.84.56 9.84-.47 9.85-.28 9.84.94 9.84-.24 9.85.69 9.84-1.03 9.85.14 9.84-.34 9.84 1.16 9.85-.13 9.84-.25 9.84-.59 9.85.86 9.84-.85 9.85.63 9.84-.41 9.84-.49 9.85.58 9.84.47 9.84.15 9.85-.57 9.84-.51 9.85.3 9.84.75 9.84-.99 9.85.53 9.84-.07h.4l-1.07 9.93.65 9.93-.3 9.93.92 9.92-1.3 9.93 1.23 9.93-.27 9.93.09 9.93-.8 9.93.42 9.93.7 9.92-.51 9.93.16 9.93-.32 9.93v-.44l-9.84 1-9.85-.79-9.84-.27-9.84.47-9.85.27-9.84.09-9.85-.57-9.84-.15-9.84.94-9.85-.16-9.84-.21-9.84.07-9.85-.03-9.84-.27-9.85-.51-9.84-.04-9.84.65-9.85-.15-9.84.49-9.84-.79-9.85.76-9.84-.46-9.85.51-9.84-.45-9.84-.21-9.85.3-9.84.52-9.84-.58-9.85.03-9.84.48-9.85-.3-9.84-.2h-.69l1.18-9.93-.15-9.93v-9.93l-.78-9.92-.25-9.93.05-9.93.88-9.93.14-9.93-1.02-9.93.8-9.93.48-9.92-1.11-9.93-.13-9.93.6-9.93z" fill="#d5e8d4" stroke="#82b366" stroke-width="2" stroke-linejoin="round" stroke-linecap="round" stroke-miterlimit="10" stroke-dasharray="6 6" pointer-events="none"/>
    <text transform="translate(259 440)" x="18" y="12" text-anchor="middle" font-size="12" font-family="Courier New">
        Router
    </text>
    <path d="M4.5 544.5v-.58l9.84-.07 9.85.15 9.84.79 9.85.04 9.84-.62 9.84.77 9.85-1.13 9.84.53 9.84.06 9.85-.5 9.84.2 9.85 1.04 9.84-.82 9.84.31 9.85-.52 9.84.12 9.84.63 9.85.34 9.84-.65 9.85-.18 9.84-.32h9.84l9.85.97 9.84-.51 9.84-.25 9.85.49 9.84-.3 9.85-.22 9.84.97 9.84-.5 9.85-.66 9.84.42h.7l-.05 9.93-.64 9.93.64 9.93-1.14 9.92.57 9.93-.34 9.93-.16 9.93-.3 9.93.21 9.93.76 9.93-.21 9.92-.11 9.93.18 9.93-.11 9.93v.5l-9.84-.41-9.85-.27-9.84-.03-9.84-.32-9.85.92-9.84-.17-9.85-.27-9.84.47-9.84.09-9.85.12-9.84-1.37-9.84.82-9.85.66-9.84-1.44-9.85 1.27-9.84-.09-9.84-.43-9.85.28-9.84-.03-9.84-.27-9.85.64-9.84-.3-9.85-.86h-9.84l-9.84.61-9.85.56-9.84-.9-9.84.39-9.85.44-9.84-1.12-9.85.97-9.84-.46h-.11l-.09-9.93.36-9.93-.77-9.93.79-9.92-.62-9.93.09-9.93.04-9.93.71-9.93-.43-9.93-.41-9.93.28-9.92.12-9.93.38-9.93-.34-9.93z" stroke="#000" stroke-width="2" stroke-linejoin="round" stroke-linecap="round" stroke-miterlimit="10" stroke-dasharray="6 6" opacity=".25"/>
    <path d="M2.5 541.5v-.58l9.84-.07 9.85.15 9.84.79 9.85.04 9.84-.62 9.84.77 9.85-1.13 9.84.53 9.84.06 9.85-.5 9.84.2 9.85 1.04 9.84-.82 9.84.31 9.85-.52 9.84.12 9.84.63 9.85.34 9.84-.65 9.85-.18 9.84-.32h9.84l9.85.97 9.84-.51 9.84-.25 9.85.49 9.84-.3 9.85-.22 9.84.97 9.84-.5 9.85-.66 9.84.42h.7l-.05 9.93-.64 9.93.64 9.93-1.14 9.92.57 9.93-.34 9.93-.16 9.93-.3 9.93.21 9.93.76 9.93-.21 9.92-.11 9.93.18 9.93-.11 9.93v.5l-9.84-.41-9.85-.27-9.84-.03-9.84-.32-9.85.92-9.84-.17-9.85-.27-9.84.47-9.84.09-9.85.12-9.84-1.37-9.84.82-9.85.66-9.84-1.44-9.85 1.27-9.84-.09-9.84-.43-9.85.28-9.84-.03-9.84-.27-9.85.64-9.84-.3-9.85-.86h-9.84l-9.84.61-9.85.56-9.84-.9-9.84.39-9.85.44-9.84-1.12-9.85.97-9.84-.46h-.11l-.09-9.93.36-9.93-.77-9.93.79-9.92-.62-9.93.09-9.93.04-9.93.71-9.93-.43-9.93-.41-9.93.28-9.92.12-9.93.38-9.93-.34-9.93z" fill="#d5e8d4" stroke="#82b366" stroke-width="2" stroke-linejoin="round" stroke-linecap="round" stroke-miterlimit="10" stroke-dasharray="6 6" pointer-events="none"/>
    <text transform="translate(141 604)" x="18" y="12" text-anchor="middle" font-size="12" font-family="Courier New">
        Router
    </text>
    <path d="M3.5 215.5v.7l9.84-.65 9.85.66 9.84-1.41 9.85.13 9.84 1.29 9.84-.73 9.85-.14 9.84.61 9.84-.57 9.85.43 9.84.08 9.85-.53 9.84-.28 9.84.42 9.85.25 9.84.25 9.84.12 9.85-.98 9.84.32 9.85-.7 9.84.43 9.84.28 9.85-.64 9.84.66 9.84-.74 9.85.17 9.84-.04h9.85l9.84.41 9.84.75 9.85-1.04 9.84.49h.26l.12 9.93-.99 9.93.95 9.93.18 9.92-.11 9.93-.91 9.93.34 9.93-.5 9.93.09 9.93.54 9.93.28 9.92-.82 9.93.53 9.93.04 9.93v-.65l-9.84 1.12-9.85.26-9.84-.35-9.84-.14-9.85-.96-9.84 1.27-9.85.17-9.84-.74-9.84-.13-9.85-.15-9.84-.28-9.84.13-9.85-.21-9.84 1.17-9.85-.23-9.84.37-9.84-.84-9.85.93-9.84-.1-9.84-.54-9.85-.54-9.84.88-9.85.09-9.84-.78-9.84-.24-9.85.79-9.84-.84-9.84 1.29-9.85-.85-9.84.12-9.85-.59-9.84.57h.08l-.36-9.93-.38-9.93.02-9.93.59-9.92-.13-9.93.49-9.93-.06-9.93-.29-9.93.63-9.93.1-9.93.03-9.92-1.14-9.93-.03-9.93.45-9.93z" stroke="#000" stroke-width="2" stroke-linejoin="round" stroke-linecap="round" stroke-miterlimit="10" stroke-dasharray="6 6" opacity=".25"/>
    <path d="M1.5 212.5v.7l9.84-.65 9.85.66 9.84-1.41 9.85.13 9.84 1.29 9.84-.73 9.85-.14 9.84.61 9.84-.57 9.85.43 9.84.08 9.85-.53 9.84-.28 9.84.42 9.85.25 9.84.25 9.84.12 9.85-.98 9.84.32 9.85-.7 9.84.43 9.84.28 9.85-.64 9.84.66 9.84-.74 9.85.17 9.84-.04h9.85l9.84.41 9.84.75 9.85-1.04 9.84.49h.26l.12 9.93-.99 9.93.95 9.93.18 9.92-.11 9.93-.91 9.93.34 9.93-.5 9.93.09 9.93.54 9.93.28 9.92-.82 9.93.53 9.93.04 9.93v-.65l-9.84 1.12-9.85.26-9.84-.35-9.84-.14-9.85-.96-9.84 1.27-9.85.17-9.84-.74-9.84-.13-9.85-.15-9.84-.28-9.84.13-9.85-.21-9.84 1.17-9.85-.23-9.84.37-9.84-.84-9.85.93-9.84-.1-9.84-.54-9.85-.54-9.84.88-9.85.09-9.84-.78-9.84-.24-9.85.79-9.84-.84-9.84 1.29-9.85-.85-9.84.12-9.85-.59-9.84.57h.08l-.36-9.93-.38-9.93.02-9.93.59-9.92-.13-9.93.49-9.93-.06-9.93-.29-9.93.63-9.93.1-9.93.03-9.92-1.14-9.93-.03-9.93.45-9.93z" fill="#d5e8d4" stroke="#82b366" stroke-width="2" stroke-linejoin="round" stroke-linecap="round" stroke-miterlimit="10" stroke-dasharray="6 6" pointer-events="none"/>
    <text transform="translate(140 275)" x="18" y="12" text-anchor="middle" font-size="12" font-family="Courier New">
        Router
    </text>
    <path d="M109 32c-34 0-42.5 27.5-15.3 33-27.2 12.1 3.4 38.5 25.5 27.5 15.3 22 66.3 22 83.3 0 34 0 34-22 12.75-33 21.25-22-12.75-44-42.5-33C151.5 10 117.5 10 109 32z" stroke="#000" stroke-width="2" stroke-miterlimit="10" opacity=".25"/>
    <path d="M107 29c-34 0-42.5 27.5-15.3 33-27.2 12.1 3.4 38.5 25.5 27.5 15.3 22 66.3 22 83.3 0 34 0 34-22 12.75-33 21.25-22-12.75-44-42.5-33C149.5 7 115.5 7 107 29z" fill="#dae8fc" stroke="#9cf" stroke-width="2" stroke-miterlimit="10" pointer-events="none"/>
    <path d="M20.5 225.5v.56l10-.35 10 .54 10-.96 10 .27 10 .53 10-.58 10-.4 10-.07 10-.2 10 .11 10 .85 10-.75 10 .59 10 .16 10-.94 10 .38 10 1 10-.03 10-1.37 10 1.34 10-1.32 10 .16 10 .04 10 1 10-.56 10 .05 10-.17 10 .12h-.16l-.09 7.8.27 7.8.02 7.8.1 7.8-.14 7.8v.39l-10-1.02-10 .87-10-.95-10 1.11-10-.98-10 1.31-10-.83-10 .59-10-1.03-10 .58-10-.75-10 .81-10 .56-10-.07-10-.94-10 .91-10-1.03-10 .83-10 .21-10-.19-10-.54-10-.32-10-.24-10 .33-10 .1-10-.29-10 .59-10-.01h.22l-.16-7.8-.08-7.8.25-7.8.01-7.8-.24-7.8z" stroke="#000" stroke-width="2" stroke-linejoin="round" stroke-linecap="round" stroke-miterlimit="10" opacity=".25"/>
    <path d="M18.5 222.5v.56l10-.35 10 .54 10-.96 10 .27 10 .53 10-.58 10-.4 10-.07 10-.2 10 .11 10 .85 10-.75 10 .59 10 .16 10-.94 10 .38 10 1 10-.03 10-1.37 10 1.34 10-1.32 10 .16 10 .04 10 1 10-.56 10 .05 10-.17 10 .12h-.16l-.09 7.8.27 7.8.02 7.8.1 7.8-.14 7.8v.39l-10-1.02-10 .87-10-.95-10 1.11-10-.98-10 1.31-10-.83-10 .59-10-1.03-10 .58-10-.75-10 .81-10 .56-10-.07-10-.94-10 .91-10-1.03-10 .83-10 .21-10-.19-10-.54-10-.32-10-.24-10 .33-10 .1-10-.29-10 .59-10-.01h.22l-.16-7.8-.08-7.8.25-7.8.01-7.8-.24-7.8z" fill="#fff" stroke="#000" stroke-width="2" stroke-linejoin="round" stroke-linecap="round" stroke-miterlimit="10" pointer-events="none"/>
    <text transform="translate(136 235)" x="22" y="12" text-anchor="middle" font-size="12" font-family="Courier New">
        /boats
    </text>
    <path d="M140.5 389.5v.09l10 .13 10-.55 10-.24 10 .97 10-.78 10 .41 10 .06 10-.67 10 .5 10-.52 10 1.07 10-.6 10 .5 10-.54 10-.09 10 .28 10-.76 10 .33 10 .86 10-.51 10 .16 10-.17 10 .37 10 .28 10-.67 10 .07 10 .39 10-.37h.13l-.13 7.2.12 7.2-.24 7.2.08 7.2.04 7.2v.34l-10-.77-10 .02-10 1.16-10-1.1-10 .59-10-.13-10-.24-10 .77-10-.49-10-.74-10 .29-10 .23-10 .42-10-1-10 1.16-10-.03-10-.27-10-.28-10 .13-10 .24-10-.5-10 .9-10-1.38-10 1.31-10-.6-10 .56-10-.56-10-.03h.02l-.19-7.2-.02-7.2.07-7.2.08-7.2.04-7.2z" stroke="#000" stroke-width="2" stroke-linejoin="round" stroke-linecap="round" stroke-miterlimit="10" opacity=".25"/>
    <path d="M138.5 386.5v.09l10 .13 10-.55 10-.24 10 .97 10-.78 10 .41 10 .06 10-.67 10 .5 10-.52 10 1.07 10-.6 10 .5 10-.54 10-.09 10 .28 10-.76 10 .33 10 .86 10-.51 10 .16 10-.17 10 .37 10 .28 10-.67 10 .07 10 .39 10-.37h.13l-.13 7.2.12 7.2-.24 7.2.08 7.2.04 7.2v.34l-10-.77-10 .02-10 1.16-10-1.1-10 .59-10-.13-10-.24-10 .77-10-.49-10-.74-10 .29-10 .23-10 .42-10-1-10 1.16-10-.03-10-.27-10-.28-10 .13-10 .24-10-.5-10 .9-10-1.38-10 1.31-10-.6-10 .56-10-.56-10-.03h.02l-.19-7.2-.02-7.2.07-7.2.08-7.2.04-7.2z" fill="#fff" stroke="#000" stroke-width="2" stroke-linejoin="round" stroke-linecap="round" stroke-miterlimit="10" pointer-events="none"/>
    <text transform="translate(259 398)" x="19" y="12" text-anchor="middle" font-size="12" font-family="Courier New">
        /cars
    </text>
    <path d="M20.5 305.5v.3l10 .45 10-.02 10-.74 10-.45 10 .02 10 .02 10-.24 10 .91 10-.21 10 .59 10-.08 10-.85 10-.05 10 .89 10 .16 10-.39 10-.64 10 .12 10 .08 10 .02 10 .6 10 .07 10-.22 10-.91 10 .56 10 .09 10-.77 10 .69h-.24l.49 7.8-.38 7.8.15 7.8.08 7.8-.1 7.8v.11l-10 .18-10-.73-10 .35-10 .81-10-.17-10 .16-10-.07-10-.64-10 .33-10-.06-10 .19-10 .16-10-.11-10-.71-10 .72-10-.99-10 .23-10-.32-10 1.14-10-1.15-10 1.26-10-.83-10 .24-10 .32-10-.65-10 .28-10-.61-10 .56h.01l.16-7.8-.14-7.8-.18-7.8.15-7.8v-7.8z" stroke="#000" stroke-width="2" stroke-linejoin="round" stroke-linecap="round" stroke-miterlimit="10" opacity=".25"/>
    <path d="M18.5 302.5v.3l10 .45 10-.02 10-.74 10-.45 10 .02 10 .02 10-.24 10 .91 10-.21 10 .59 10-.08 10-.85 10-.05 10 .89 10 .16 10-.39 10-.64 10 .12 10 .08 10 .02 10 .6 10 .07 10-.22 10-.91 10 .56 10 .09 10-.77 10 .69h-.24l.49 7.8-.38 7.8.15 7.8.08 7.8-.1 7.8v.11l-10 .18-10-.73-10 .35-10 .81-10-.17-10 .16-10-.07-10-.64-10 .33-10-.06-10 .19-10 .16-10-.11-10-.71-10 .72-10-.99-10 .23-10-.32-10 1.14-10-1.15-10 1.26-10-.83-10 .24-10 .32-10-.65-10 .28-10-.61-10 .56h.01l.16-7.8-.14-7.8-.18-7.8.15-7.8v-7.8z" fill="#fff" stroke="#000" stroke-width="2" stroke-linejoin="round" stroke-linecap="round" stroke-miterlimit="10" pointer-events="none"/>
    <text transform="translate(121 315)" x="37" y="12" text-anchor="middle" font-size="12" font-family="Courier New">
        /boats/:id
    </text>
    <path d="M21.5 635.5v-.11l10 .5 10 .34 10-1.05 10 .9 10-1.3 10 .56 10 .23 10 .06 10 .04 10-.66 10 .48 10-.67 10 .87 10-.53 10 .27h10l10 .4 10-.97 10 .16 10 .61 10 .05 10 .55 10-1.1 10 .67 10 .04 10-1.01 10 .43 10 .24h.21l-.14 7.8-.09 7.8.2 7.8.06 7.8-.24 7.8v.65l-10-.93-10-.04-10 .5-10 .18-10 .03-10-1.11-10 .55-10 .17-10 .18-10 .48-10-.7-10 .4-10-.61-10 .18-10-.28-10-.36-10 1.31-10-1.13-10-.1-10 .05-10 .26-10-.1-10-.27-10 .78-10 .43-10-.21-10-.9-10 .59h-.11l.21-7.8.09-7.8-.07-7.8-.27-7.8.15-7.8z" stroke="#000" stroke-width="2" stroke-linejoin="round" stroke-linecap="round" stroke-miterlimit="10" opacity=".25"/>
    <path d="M19.5 632.5v-.11l10 .5 10 .34 10-1.05 10 .9 10-1.3 10 .56 10 .23 10 .06 10 .04 10-.66 10 .48 10-.67 10 .87 10-.53 10 .27h10l10 .4 10-.97 10 .16 10 .61 10 .05 10 .55 10-1.1 10 .67 10 .04 10-1.01 10 .43 10 .24h.21l-.14 7.8-.09 7.8.2 7.8.06 7.8-.24 7.8v.65l-10-.93-10-.04-10 .5-10 .18-10 .03-10-1.11-10 .55-10 .17-10 .18-10 .48-10-.7-10 .4-10-.61-10 .18-10-.28-10-.36-10 1.31-10-1.13-10-.1-10 .05-10 .26-10-.1-10-.27-10 .78-10 .43-10-.21-10-.9-10 .59h-.11l.21-7.8.09-7.8-.07-7.8-.27-7.8.15-7.8z" fill="#fff" stroke="#000" stroke-width="2" stroke-linejoin="round" stroke-linecap="round" stroke-miterlimit="10" pointer-events="none"/>
    <text transform="translate(104 645)" x="55" y="12" text-anchor="middle" font-size="12" font-family="Courier New">
        /realestate/:id
    </text>
    <path d="M21.5 714.5v-.67l10 .06 10 .74 10-.19 10 .52 10-.71 10 .09 10 .14 10 .24 10-.61 10 .24 10-.29 10-.23 10 .63 10 .08 10 .57 10-.2 10-.84 10 .8 10-.14 10 .28 10-1.22 10 1.42 10-.8 10 .2 10 .61 10-.83 10-.14 10 .25h-.08l.32 7.8-.45 7.8.04 7.8v7.8l.17 7.8v-.43l-10 .67-10-.15-10-.39-10 1.04-10-1.13-10-.23-10 .89-10 .05-10 .18-10-.63-10 .05-10 .69-10-1.34-10 .74-10 .28-10 .23-10-.04-10-.28-10 .32-10-.38-10-.2-10 .27-10 .3h-10l-10-.54-10-.62-10 1.19-10-.54h-.15l.26-7.8.09-7.8.01-7.8-.06-7.8-.15-7.8z" stroke="#000" stroke-width="2" stroke-linejoin="round" stroke-linecap="round" stroke-miterlimit="10" opacity=".25"/>
    <path d="M19.5 711.5v-.67l10 .06 10 .74 10-.19 10 .52 10-.71 10 .09 10 .14 10 .24 10-.61 10 .24 10-.29 10-.23 10 .63 10 .08 10 .57 10-.2 10-.84 10 .8 10-.14 10 .28 10-1.22 10 1.42 10-.8 10 .2 10 .61 10-.83 10-.14 10 .25h-.08l.32 7.8-.45 7.8.04 7.8v7.8l.17 7.8v-.43l-10 .67-10-.15-10-.39-10 1.04-10-1.13-10-.23-10 .89-10 .05-10 .18-10-.63-10 .05-10 .69-10-1.34-10 .74-10 .28-10 .23-10-.04-10-.28-10 .32-10-.38-10-.2-10 .27-10 .3h-10l-10-.54-10-.62-10 1.19-10-.54h-.15l.26-7.8.09-7.8.01-7.8-.06-7.8-.15-7.8z" fill="#e1d5e7" stroke="#9673a6" stroke-width="2" stroke-linejoin="round" stroke-linecap="round" stroke-miterlimit="10" pointer-events="none"/>
    <text transform="translate(112 724)" x="47" y="12" text-anchor="middle" font-size="12" font-family="Courier New">
        Error handler
    </text>
    <path d="M20.5 144.5v.07l10-.3 10 .79 10-.64 10-.21 10 1.02 10-.57 10 .31h10l10-.53 10 .54 10-.92 10 .84 10 .15 10-.66 10-.38 10 .68 10-.07 10-.28 10 .34 10 .08 10-.79 10-.01 10 .4 10 .59 10-.25 10 .19 10-.94 10 .55h-.07l.1 7.8-.03 7.8-.05 7.8.11 7.8-.06 7.8v-.43l-10 .12-10 .96-10 .07-10-.44-10-.53-10 .39-10-.67-10 .31-10 .05-10 .08-10-.12-10-.22-10 .03-10 .76-10-.59-10-.26-10 1.06-10-.03-10-1.02-10-.27-10 1.37-10-.03-10-.15-10-.28-10-.03-10-.39-10-.35-10 .61h.2l-.43-7.8.3-7.8-.16-7.8.17-7.8-.08-7.8z" stroke="#000" stroke-width="2" stroke-linejoin="round" stroke-linecap="round" stroke-miterlimit="10" opacity=".25"/>
    <path d="M18.5 141.5v.07l10-.3 10 .79 10-.64 10-.21 10 1.02 10-.57 10 .31h10l10-.53 10 .54 10-.92 10 .84 10 .15 10-.66 10-.38 10 .68 10-.07 10-.28 10 .34 10 .08 10-.79 10-.01 10 .4 10 .59 10-.25 10 .19 10-.94 10 .55h-.07l.1 7.8-.03 7.8-.05 7.8.11 7.8-.06 7.8v-.43l-10 .12-10 .96-10 .07-10-.44-10-.53-10 .39-10-.67-10 .31-10 .05-10 .08-10-.12-10-.22-10 .03-10 .76-10-.59-10-.26-10 1.06-10-.03-10-1.02-10-.27-10 1.37-10-.03-10-.15-10-.28-10-.03-10-.39-10-.35-10 .61h.2l-.43-7.8.3-7.8-.16-7.8.17-7.8-.08-7.8z" fill="#ffe6cc" stroke="#d79b00" stroke-width="2" stroke-linejoin="round" stroke-linecap="round" stroke-miterlimit="10" pointer-events="none"/>
    <text transform="translate(89 154)" x="69" y="12" text-anchor="middle" font-size="12" font-family="Courier New">
        Security middelware
    </text>
    <path d="M140.5 470.5v.65l10-.41 10 .01 10-.96 10 .99 10-.07 10 .11 10-.14 10-.35 10-.13 10 .8 10-1.02 10 .31 10 .44 10 .1 10-1.04 10 .58 10-.22 10 .17 10 .21 10 .18 10 .15 10-.46 10 .59 10-.89 10 .18 10 .72 10 .19 10-.69h-.03l.07 7.8v7.8l.03 7.8-.23 7.8.16 7.8v-.52l-10 1-10-.69-10 .73-10-1.21-10 1.12-10-.54-10-.48-10 .61-10-.19-10 .79-10-.56-10-.04-10-.05-10 .01-10 .12-10-.13-10 .04-10-.32-10 .62-10-.09-10 .31-10-.96-10 .35-10 .79-10-.85-10-.04-10 .74-10-.56h-.25l.11-7.8v-7.8l.18-7.8-.11-7.8.07-7.8z" stroke="#000" stroke-width="2" stroke-linejoin="round" stroke-linecap="round" stroke-miterlimit="10" opacity=".25"/>
    <path d="M138.5 467.5v.65l10-.41 10 .01 10-.96 10 .99 10-.07 10 .11 10-.14 10-.35 10-.13 10 .8 10-1.02 10 .31 10 .44 10 .1 10-1.04 10 .58 10-.22 10 .17 10 .21 10 .18 10 .15 10-.46 10 .59 10-.89 10 .18 10 .72 10 .19 10-.69h-.03l.07 7.8v7.8l.03 7.8-.23 7.8.16 7.8v-.52l-10 1-10-.69-10 .73-10-1.21-10 1.12-10-.54-10-.48-10 .61-10-.19-10 .79-10-.56-10-.04-10-.05-10 .01-10 .12-10-.13-10 .04-10-.32-10 .62-10-.09-10 .31-10-.96-10 .35-10 .79-10-.85-10-.04-10 .74-10-.56h-.25l.11-7.8v-7.8l.18-7.8-.11-7.8.07-7.8z" fill="#fff" stroke="#000" stroke-width="2" stroke-linejoin="round" stroke-linecap="round" stroke-miterlimit="10" pointer-events="none"/>
    <text transform="translate(238 480)" x="40" y="12" text-anchor="middle" font-size="12" font-family="Courier New">
        /cars/:type
    </text>
    <path d="M22.5 554.5v.21l10-.93 10 .03 10 .2 10 1.15 10-.01 10-1.18 10 .92 10-.09 10 .28 10-.86 10-.03 10 .02 10 .69 10-.34 10-.47 10 .62 10 .43 10-.53 10 .62 10-.39 10 .1 10-.02 10-.24 10-.78 10 .84 10-.94 10 .5 10 .2h.1l-.32 7.2.27 7.2-.15 7.2.2 7.2-.1 7.2v-.62l-10 .72-10-.41-10-.19-10 .13-10 .11-10 .36-10 .02-10-.02-10-.48-10 1.11-10-1.05-10 .85-10-.75-10-.22-10-.02-10-.24-10 .91-10-.37-10-.1-10-.23-10 .01-10 .93-10-.38-10-.12-10 .68-10-.25-10-.55-10 .17h-.08v-7.2l.04-7.2.02-7.2.06-7.2-.04-7.2z" stroke="#000" stroke-width="2" stroke-linejoin="round" stroke-linecap="round" stroke-miterlimit="10" opacity=".25"/>
    <path d="M20.5 551.5v.21l10-.93 10 .03 10 .2 10 1.15 10-.01 10-1.18 10 .92 10-.09 10 .28 10-.86 10-.03 10 .02 10 .69 10-.34 10-.47 10 .62 10 .43 10-.53 10 .62 10-.39 10 .1 10-.02 10-.24 10-.78 10 .84 10-.94 10 .5 10 .2h.1l-.32 7.2.27 7.2-.15 7.2.2 7.2-.1 7.2v-.62l-10 .72-10-.41-10-.19-10 .13-10 .11-10 .36-10 .02-10-.02-10-.48-10 1.11-10-1.05-10 .85-10-.75-10-.22-10-.02-10-.24-10 .91-10-.37-10-.1-10-.23-10 .01-10 .93-10-.38-10-.12-10 .68-10-.25-10-.55-10 .17h-.08v-7.2l.04-7.2.02-7.2.06-7.2-.04-7.2z" fill="#fff" stroke="#000" stroke-width="2" stroke-linejoin="round" stroke-linecap="round" stroke-miterlimit="10" pointer-events="none"/>
    <text transform="translate(120 563)" x="40" y="12" text-anchor="middle" font-size="12" font-family="Courier New">
        /realestate
    </text>
</svg>
