<svg viewBox="0 0 100% 100%" xmlns="http://www.w3.org/2000/svg">
    <path d="M721.5 124.5v.69l10-.49 10-.38 10 .79 10 .13 10-.6 10-.64 10 .25 10 .85 10-.59 10-.28 10 .85 10-.9 10 .39 10 .14 10-.47 10-.13 10 1.03 10-.28 10-.65 10 .65 10 .3 10-.49 10-.57 10-.14 10 .81 10 .39 10-.29 10 .02 10-1.06 10-.03 10 .32 10 .73 10 .39 10-.74h.66l-.27 10 .08 10-.26 10 .19 10-.39 10-.44 10 .61 10-.75 10 .36 10 .34 10 .23 10-.47 10 .13 10-.28 10 .98 10-.12 10-.23 10-.04 10-.37 10 .36 10-1.02 10 .34 10 .5 10-.46 10-.38 10 1.05 10-.64 10-.24 10 .79 10-.11 10 .29 10-.44 10v-.2l-10 .93-10-.24-10-1.02-10 1.09-10-1.08-10 .04-10 .34-10-.57-10 1.22-10-.41-10-.7-10 .31-10 .37-10 .36-10-.65-10 .92-10-.18-10-.56-10 .08-10 .44-10-1-10 .97-10 .17-10-1.36-10 .32-10 1.08-10-.53-10 .05-10-.88-10 .27-10-.13-10 1.02-10-.84-10 .37h.34l-.76-10 1.02-10-.73-10 .03-10 .66-10-.66-10-.06-10 .04-10 .09-10 .55-10-.9-10 .96-10-1.08-10-.07-10 .6-10 .12-10-.46-10 .3-10-.03-10 .45-10 .24-10-.35-10 .28-10-.96-10 .52-10-.19-10 .26-10 .54-10-.73-10-.07-10 .47-10-.42-10z" stroke="#000" stroke-width="2" stroke-linejoin="round" stroke-linecap="round" stroke-miterlimit="10" stroke-dasharray="6 6" opacity=".25"/>
    <path d="M719.5 121.5v.69l10-.49 10-.38 10 .79 10 .13 10-.6 10-.64 10 .25 10 .85 10-.59 10-.28 10 .85 10-.9 10 .39 10 .14 10-.47 10-.13 10 1.03 10-.28 10-.65 10 .65 10 .3 10-.49 10-.57 10-.14 10 .81 10 .39 10-.29 10 .02 10-1.06 10-.03 10 .32 10 .73 10 .39 10-.74h.66l-.27 10 .08 10-.26 10 .19 10-.39 10-.44 10 .61 10-.75 10 .36 10 .34 10 .23 10-.47 10 .13 10-.28 10 .98 10-.12 10-.23 10-.04 10-.37 10 .36 10-1.02 10 .34 10 .5 10-.46 10-.38 10 1.05 10-.64 10-.24 10 .79 10-.11 10 .29 10-.44 10v-.2l-10 .93-10-.24-10-1.02-10 1.09-10-1.08-10 .04-10 .34-10-.57-10 1.22-10-.41-10-.7-10 .31-10 .37-10 .36-10-.65-10 .92-10-.18-10-.56-10 .08-10 .44-10-1-10 .97-10 .17-10-1.36-10 .32-10 1.08-10-.53-10 .05-10-.88-10 .27-10-.13-10 1.02-10-.84-10 .37h.34l-.76-10 1.02-10-.73-10 .03-10 .66-10-.66-10-.06-10 .04-10 .09-10 .55-10-.9-10 .96-10-1.08-10-.07-10 .6-10 .12-10-.46-10 .3-10-.03-10 .45-10 .24-10-.35-10 .28-10-.96-10 .52-10-.19-10 .26-10 .54-10-.73-10-.07-10 .47-10-.42-10z" fill="#f5f5f5" stroke="#666" stroke-width="2" stroke-linejoin="round" stroke-linecap="round" stroke-miterlimit="10" stroke-dasharray="6 6" pointer-events="none"/>
    <path d="M363.5 124.5v-.67l10 .63 10 .1 10-.28 10-.28 10 .21 10 .24 10 .78 10-.49 10-.19 10-.66 10 .56 10 .2 10-.79 10 .06 10 .73 10 .44 10-1.23 10 .32 10 .27 10-.44 10 .24 10 .4 10-.21 10 .67 10-.63 10-.23 10 .26 10 .72 10-1.15 10 .45 10-.68 10 1.27 10-.94 10 .32h-.07l.79 10-.65 10 .25 10-.95 10 1.06 10-.31 10 .39 10 .07 10-1.06 10-.02 10 .95 10-.06 10-.76 10 .68 10-.53 10 .03 10 .87 10-.22 10-.65 10 .26 10-.66 10-.1 10 1.36 10 .06 10-.03 10-1.27 10 1.14 10-.58 10 .65 10-.11 10-.04 10-.49 10v-.63l-10 1.01-10-.97-10 .79-10 .21-10 .17-10-.82-10 .7-10-.2-10-.28-10 .21-10-.28-10 .64-10-.32-10 .24-10-1.08-10 1.24-10-1.19-10 .65-10 .35-10-.64-10-.36-10 .73-10-.37-10 .49-10-.97-10 .27-10 .26-10 .75-10-.17-10 .21-10 .01-10-.34-10 .4-10-.71h.54l-1.08-10 .43-10 .78-10-.9-10 .33-10 .38-10 .23-10-.34-10 .17-10-.9-10 .4-10-.66-10 1.27-10-.51-10 .48-10-1.26-10 .56-10 .21-10-.34-10 .77-10-1.14-10-.12-10 .21-10-.01-10 .92-10-.17-10-.79-10 .36-10-.27-10 1.13-10-.45-10-.23-10z" stroke="#000" stroke-width="2" stroke-linejoin="round" stroke-linecap="round" stroke-miterlimit="10" stroke-dasharray="6 6" opacity=".25"/>
    <path d="M361.5 121.5v-.67l10 .63 10 .1 10-.28 10-.28 10 .21 10 .24 10 .78 10-.49 10-.19 10-.66 10 .56 10 .2 10-.79 10 .06 10 .73 10 .44 10-1.23 10 .32 10 .27 10-.44 10 .24 10 .4 10-.21 10 .67 10-.63 10-.23 10 .26 10 .72 10-1.15 10 .45 10-.68 10 1.27 10-.94 10 .32h-.07l.79 10-.65 10 .25 10-.95 10 1.06 10-.31 10 .39 10 .07 10-1.06 10-.02 10 .95 10-.06 10-.76 10 .68 10-.53 10 .03 10 .87 10-.22 10-.65 10 .26 10-.66 10-.1 10 1.36 10 .06 10-.03 10-1.27 10 1.14 10-.58 10 .65 10-.11 10-.04 10-.49 10v-.63l-10 1.01-10-.97-10 .79-10 .21-10 .17-10-.82-10 .7-10-.2-10-.28-10 .21-10-.28-10 .64-10-.32-10 .24-10-1.08-10 1.24-10-1.19-10 .65-10 .35-10-.64-10-.36-10 .73-10-.37-10 .49-10-.97-10 .27-10 .26-10 .75-10-.17-10 .21-10 .01-10-.34-10 .4-10-.71h.54l-1.08-10 .43-10 .78-10-.9-10 .33-10 .38-10 .23-10-.34-10 .17-10-.9-10 .4-10-.66-10 1.27-10-.51-10 .48-10-1.26-10 .56-10 .21-10-.34-10 .77-10-1.14-10-.12-10 .21-10-.01-10 .92-10-.17-10-.79-10 .36-10-.27-10 1.13-10-.45-10-.23-10z" fill="#f5f5f5" stroke="#666" stroke-width="2" stroke-linejoin="round" stroke-linecap="round" stroke-miterlimit="10" stroke-dasharray="6 6" pointer-events="none"/>
    <path d="M3.5 124.5v.24l10-.16 10-.11 10 .73 10-1.09 10 .74 10-.05 10 .37 10-.33 10-.19 10-.75 10 .63 10 .49 10-1.13 10 .81 10-.92 10 .21 10 .32 10 .36 10-.26 10 .31 10-.54 10 .29 10-.31 10 1.02 10-.16 10-.09 10-1.07 10-.06 10 .31 10 1.1 10-.01 10-.85 10 .45 10-.3h-.46l1.14 10-1.31 10 1.29 10 .05 10-.66 10 .25 10-.32 10-.14 10 .72 10-.1 10-1.02 10 .5 10-.33 10 .93 10 .17 10-1.22 10 .64 10 .33 10-.12 10-.38 10-.06 10 .01 10 .17 10 .62 10-.62 10-.33 10 .22 10 .24 10-.27 10-.05 10 .82 10-.71 10v.59l-10 .11-10-.24-10 .28-10-.63-10-.54-10 .88-10 .23-10-1.34-10 .43-10-.49-10 .95-10 .48-10-.34-10-.72-10 .27-10 .35-10-.89-10 .92-10-.32-10-.45-10-.04-10 .94-10-.08-10-.31-10-.41-10-.28-10 .99-10 .08-10 .06-10-.75-10 .17-10 .78-10-.34-10-.34h-.1l-.39-10 .93-10-1.12-10 1.2-10-.13-10-.82-10v-10l1-10-.4-10-.85-10 .98-10-.99-10 1.16-10-.41-10 .49-10-.16-10 .08-10-.36-10 .61-10-.96-10 .41-10-.42-10-.49-10 .8-10 .19-10v-10l-.83-10 .23-10 .57-10 .24-10 .09-10-.55-10z" stroke="#000" stroke-width="2" stroke-linejoin="round" stroke-linecap="round" stroke-miterlimit="10" stroke-dasharray="6 6" opacity=".25"/>
    <path d="M1.5 121.5v.24l10-.16 10-.11 10 .73 10-1.09 10 .74 10-.05 10 .37 10-.33 10-.19 10-.75 10 .63 10 .49 10-1.13 10 .81 10-.92 10 .21 10 .32 10 .36 10-.26 10 .31 10-.54 10 .29 10-.31 10 1.02 10-.16 10-.09 10-1.07 10-.06 10 .31 10 1.1 10-.01 10-.85 10 .45 10-.3h-.46l1.14 10-1.31 10 1.29 10 .05 10-.66 10 .25 10-.32 10-.14 10 .72 10-.1 10-1.02 10 .5 10-.33 10 .93 10 .17 10-1.22 10 .64 10 .33 10-.12 10-.38 10-.06 10 .01 10 .17 10 .62 10-.62 10-.33 10 .22 10 .24 10-.27 10-.05 10 .82 10-.71 10v.59l-10 .11-10-.24-10 .28-10-.63-10-.54-10 .88-10 .23-10-1.34-10 .43-10-.49-10 .95-10 .48-10-.34-10-.72-10 .27-10 .35-10-.89-10 .92-10-.32-10-.45-10-.04-10 .94-10-.08-10-.31-10-.41-10-.28-10 .99-10 .08-10 .06-10-.75-10 .17-10 .78-10-.34-10-.34h-.1l-.39-10 .93-10-1.12-10 1.2-10-.13-10-.82-10v-10l1-10-.4-10-.85-10 .98-10-.99-10 1.16-10-.41-10 .49-10-.16-10 .08-10-.36-10 .61-10-.96-10 .41-10-.42-10-.49-10 .8-10 .19-10v-10l-.83-10 .23-10 .57-10 .24-10 .09-10-.55-10z" fill="#f5f5f5" stroke="#666" stroke-width="2" stroke-linejoin="round" stroke-linecap="round" stroke-miterlimit="10" stroke-dasharray="6 6" pointer-events="none"/>
    <path d="M733.5 216.5v.21l9.84.13 9.85-.27 9.84.61 9.85-1.31 9.84.05 9.84 1.02 9.85.19 9.84-1.27 9.84 1.19 9.85-1.3 9.84.79 9.85-.46 9.84.25 9.84-.33 9.85.31 9.84-.33 9.84.4 9.85.43 9.84.19 9.85.24 9.84-.09 9.84-.28 9.85-.73 9.84.42 9.84.6 9.85-.79 9.84-.54 9.85.61 9.84-.24 9.84.55 9.85.09 9.84-.34h.48l.05 9.93-.02 9.93.1 9.93.11 9.92-.33 9.93-.48 9.93.26 9.93.19 9.93-.42 9.93-.27 9.93-.27 9.92.76 9.93-.09 9.93-.07 9.93v.62l-9.84-.5-9.85-.31-9.84-.19-9.84-.34-9.85.17-9.84.87-9.85-.58-9.84.52-9.84-.68-9.85.71-9.84-.52-9.84.26-9.85.42-9.84-.54-9.85.39-9.84-.96-9.84 1.19-9.85-.82-9.84.96-9.84-.03-9.85-.47-9.84-.18-9.85.17-9.84.12-9.84-.21-9.85-.09-9.84-.62-9.84.28-9.85.2-9.84-.22-9.85.27-9.84.11h-.12l-.54-9.93.31-9.93.62-9.93v-9.92l.36-9.93-1.09-9.93.25-9.93.42-9.93-.52-9.93.02-9.93.69-9.92-.09-9.93-.63-9.93.32-9.93z" stroke="#000" stroke-width="2" stroke-linejoin="round" stroke-linecap="round" stroke-miterlimit="10" stroke-dasharray="6 6" opacity=".25"/>
    <path d="M731.5 213.5v.21l9.84.13 9.85-.27 9.84.61 9.85-1.31 9.84.05 9.84 1.02 9.85.19 9.84-1.27 9.84 1.19 9.85-1.3 9.84.79 9.85-.46 9.84.25 9.84-.33 9.85.31 9.84-.33 9.84.4 9.85.43 9.84.19 9.85.24 9.84-.09 9.84-.28 9.85-.73 9.84.42 9.84.6 9.85-.79 9.84-.54 9.85.61 9.84-.24 9.84.55 9.85.09 9.84-.34h.48l.05 9.93-.02 9.93.1 9.93.11 9.92-.33 9.93-.48 9.93.26 9.93.19 9.93-.42 9.93-.27 9.93-.27 9.92.76 9.93-.09 9.93-.07 9.93v.62l-9.84-.5-9.85-.31-9.84-.19-9.84-.34-9.85.17-9.84.87-9.85-.58-9.84.52-9.84-.68-9.85.71-9.84-.52-9.84.26-9.85.42-9.84-.54-9.85.39-9.84-.96-9.84 1.19-9.85-.82-9.84.96-9.84-.03-9.85-.47-9.84-.18-9.85.17-9.84.12-9.84-.21-9.85-.09-9.84-.62-9.84.28-9.85.2-9.84-.22-9.85.27-9.84.11h-.12l-.54-9.93.31-9.93.62-9.93v-9.92l.36-9.93-1.09-9.93.25-9.93.42-9.93-.52-9.93.02-9.93.69-9.92-.09-9.93-.63-9.93.32-9.93z" fill="#d5e8d4" stroke="#82b366" stroke-width="2" stroke-linejoin="round" stroke-linecap="round" stroke-miterlimit="10" stroke-dasharray="6 6" pointer-events="none"/>
        <text transform="translate(870 276)" x="18" y="12" text-anchor="middle" font-size="12" font-family="Courier New">
            Router
        </text>
    <path d="M13.5 215.5v.18l9.84.06 9.85-.93 9.84.73 9.85.01 9.84.1 9.84-.79 9.85.39 9.84.1 9.84.77 9.85-1.1h9.84l9.85-.24 9.84 1.41 9.84-.25 9.85-.27 9.84-.33 9.84.87 9.85-1.44 9.84.83 9.85-.75h9.84l9.84.58 9.85.82 9.84-.24 9.84-.97 9.85.16 9.84.35 9.85.56 9.84-.05 9.84.16 9.85-.37 9.84-.35h.49l-.24 9.93-.56 9.93-.03 9.93.5 9.92-.06 9.93.6 9.93-1.37 9.93 1.01 9.93-.96 9.93.18 9.93.14 9.92.77 9.93-.82 9.93.35 9.93v.27l-9.84-.76-9.85-.18-9.84-.05-9.84.87-9.85-.26-9.84.37-9.85-.68-9.84.64-9.84-.43-9.85.4-9.84.03-9.84-.77-9.85.54-9.84-.32-9.85-.14-9.84.27-9.84.51-9.85-.76-9.84.48h-9.84l-9.85.6-9.84-1.07-9.85.29-9.84-.13-9.84.75-9.85.03-9.84-.61-9.84-.29-9.85.13-9.84.51-9.85-.38-9.84.14h.01l.74-9.93-1.26-9.93 1.23-9.93-1.02-9.92.89-9.93-.53-9.93-.16-9.93.62-9.93-.1-9.93-.53-9.93.04-9.92.02-9.93v-9.93l.05-9.93z" stroke="#000" stroke-width="2" stroke-linejoin="round" stroke-linecap="round" stroke-miterlimit="10" stroke-dasharray="6 6" opacity=".25"/>
    <path d="M11.5 212.5v.18l9.84.06 9.85-.93 9.84.73 9.85.01 9.84.1 9.84-.79 9.85.39 9.84.1 9.84.77 9.85-1.1h9.84l9.85-.24 9.84 1.41 9.84-.25 9.85-.27 9.84-.33 9.84.87 9.85-1.44 9.84.83 9.85-.75h9.84l9.84.58 9.85.82 9.84-.24 9.84-.97 9.85.16 9.84.35 9.85.56 9.84-.05 9.84.16 9.85-.37 9.84-.35h.49l-.24 9.93-.56 9.93-.03 9.93.5 9.92-.06 9.93.6 9.93-1.37 9.93 1.01 9.93-.96 9.93.18 9.93.14 9.92.77 9.93-.82 9.93.35 9.93v.27l-9.84-.76-9.85-.18-9.84-.05-9.84.87-9.85-.26-9.84.37-9.85-.68-9.84.64-9.84-.43-9.85.4-9.84.03-9.84-.77-9.85.54-9.84-.32-9.85-.14-9.84.27-9.84.51-9.85-.76-9.84.48h-9.84l-9.85.6-9.84-1.07-9.85.29-9.84-.13-9.84.75-9.85.03-9.84-.61-9.84-.29-9.85.13-9.84.51-9.85-.38-9.84.14h.01l.74-9.93-1.26-9.93 1.23-9.93-1.02-9.92.89-9.93-.53-9.93-.16-9.93.62-9.93-.1-9.93-.53-9.93.04-9.92.02-9.93v-9.93l.05-9.93z" fill="#d5e8d4" stroke="#82b366" stroke-width="2" stroke-linejoin="round" stroke-linecap="round" stroke-miterlimit="10" stroke-dasharray="6 6" pointer-events="none"/>
        <text transform="translate(150 275)" x="18" y="12" text-anchor="middle" font-size="12" font-family="Courier New">
            Router
        </text>
    <path d="M375.5 215.5v.54l9.84-.84 9.85.07 9.84.65 9.85-1.14 9.84.21 9.84.02 9.85.92 9.84-.89 9.84.51 9.85.18 9.84-.15 9.85.57 9.84-1.16 9.84.73 9.85.23 9.84-.03 9.84-.24 9.85.5 9.84-.21 9.85-.37 9.84.36 9.84-1.03 9.85 1.04 9.84-.01 9.84.16 9.85-.57 9.84-.47 9.85.55 9.84.45 9.84-.08 9.85-1.08 9.84.58h-.32l-.01 9.93.62 9.93-.81 9.93-.01 9.92.76 9.93-.38 9.93.73 9.93-.31 9.93.22 9.93-.56 9.93-.2 9.92.29 9.93-.59 9.93.57 9.93v.54l-9.84-.05-9.85-.03-9.84-.86-9.84.2-9.85-.41-9.84 1.26-9.85-1.33-9.84 1.09-9.84-.28-9.85-.4-9.84.56-9.84.02-9.85-1.06-9.84.29-9.85.82-9.84-.42-9.84.07-9.85-.01-9.84.07-9.84.29-9.85-.49-9.84.42-9.85-.15-9.84-.82-9.84.11-9.85.54-9.84.27-9.84-.76-9.85.43-9.84.46-9.85-.92-9.84.55h-.74l1.29-9.93-.32-9.93-.17-9.93-.27-9.92.54-9.93-.18-9.93-.01-9.93.17-9.93-.7-9.93.82-9.93-.16-9.92-.93-9.93.94-9.93-.28-9.93z" stroke="#000" stroke-width="2" stroke-linejoin="round" stroke-linecap="round" stroke-miterlimit="10" stroke-dasharray="6 6" opacity=".25"/>
    <path d="M373.5 212.5v.54l9.84-.84 9.85.07 9.84.65 9.85-1.14 9.84.21 9.84.02 9.85.92 9.84-.89 9.84.51 9.85.18 9.84-.15 9.85.57 9.84-1.16 9.84.73 9.85.23 9.84-.03 9.84-.24 9.85.5 9.84-.21 9.85-.37 9.84.36 9.84-1.03 9.85 1.04 9.84-.01 9.84.16 9.85-.57 9.84-.47 9.85.55 9.84.45 9.84-.08 9.85-1.08 9.84.58h-.32l-.01 9.93.62 9.93-.81 9.93-.01 9.92.76 9.93-.38 9.93.73 9.93-.31 9.93.22 9.93-.56 9.93-.2 9.92.29 9.93-.59 9.93.57 9.93v.54l-9.84-.05-9.85-.03-9.84-.86-9.84.2-9.85-.41-9.84 1.26-9.85-1.33-9.84 1.09-9.84-.28-9.85-.4-9.84.56-9.84.02-9.85-1.06-9.84.29-9.85.82-9.84-.42-9.84.07-9.85-.01-9.84.07-9.84.29-9.85-.49-9.84.42-9.85-.15-9.84-.82-9.84.11-9.85.54-9.84.27-9.84-.76-9.85.43-9.84.46-9.85-.92-9.84.55h-.74l1.29-9.93-.32-9.93-.17-9.93-.27-9.92.54-9.93-.18-9.93-.01-9.93.17-9.93-.7-9.93.82-9.93-.16-9.92-.93-9.93.94-9.93-.28-9.93z" fill="#d5e8d4" stroke="#82b366" stroke-width="2" stroke-linejoin="round" stroke-linecap="round" stroke-miterlimit="10" stroke-dasharray="6 6" pointer-events="none"/>
        <text transform="translate(512 275)" x="18" y="12" text-anchor="middle" font-size="12" font-family="Courier New">
            Router
        </text>
    <path d="M481 32c-34 0-42.5 27.5-15.3 33-27.2 12.1 3.4 38.5 25.5 27.5 15.3 22 66.3 22 83.3 0 34 0 34-22 12.75-33 21.25-22-12.75-44-42.5-33C523.5 10 489.5 10 481 32z" stroke="#000" stroke-width="2" stroke-miterlimit="10" opacity=".25"/>
    <path d="M479 29c-34 0-42.5 27.5-15.3 33-27.2 12.1 3.4 38.5 25.5 27.5 15.3 22 66.3 22 83.3 0 34 0 34-22 12.75-33 21.25-22-12.75-44-42.5-33C521.5 7 487.5 7 479 29z" fill="#dae8fc" stroke="#9cf" stroke-width="2" stroke-miterlimit="10" pointer-events="none"/>
    <path d="M392.5 225.5v.57l10-.94 10 .26 10 .55 10-1.13 10 .39 10 .71 10-.28 10-.21 10-.14 10-.17 10 .62 10 .07 10-.61 10 .83 10-.17 10-.36 10 .53 10-.7 10-.06 10 .66 10-1.14 10 .33 10 .03 10 .36 10 .37 10-.55 10-.14 10 .32h.24l-.06 7.8-.2 7.8.01 7.8.04 7.8-.03 7.8v.15l-10-.32-10 .29-10-.78-10 .76-10-.21-10-.51-10 .21-10 .92-10-.72-10 .39-10 .31-10-.27-10-.73-10 .15-10 .35-10-.23-10-.17-10 .31-10 .71-10-.81-10 .91-10-1.03-10-.41-10 .49-10-.5-10 1.32-10-.81-10 .23h-.15l.32-7.8v-7.8l.04-7.8-.04-7.8-.17-7.8z" stroke="#000" stroke-width="2" stroke-linejoin="round" stroke-linecap="round" stroke-miterlimit="10" opacity=".25"/>
    <path d="M390.5 222.5v.57l10-.94 10 .26 10 .55 10-1.13 10 .39 10 .71 10-.28 10-.21 10-.14 10-.17 10 .62 10 .07 10-.61 10 .83 10-.17 10-.36 10 .53 10-.7 10-.06 10 .66 10-1.14 10 .33 10 .03 10 .36 10 .37 10-.55 10-.14 10 .32h.24l-.06 7.8-.2 7.8.01 7.8.04 7.8-.03 7.8v.15l-10-.32-10 .29-10-.78-10 .76-10-.21-10-.51-10 .21-10 .92-10-.72-10 .39-10 .31-10-.27-10-.73-10 .15-10 .35-10-.23-10-.17-10 .31-10 .71-10-.81-10 .91-10-1.03-10-.41-10 .49-10-.5-10 1.32-10-.81-10 .23h-.15l.32-7.8v-7.8l.04-7.8-.04-7.8-.17-7.8z" fill="#fff" stroke="#000" stroke-width="2" stroke-linejoin="round" stroke-linecap="round" stroke-miterlimit="10" pointer-events="none"/>
        <text transform="translate(508 235)" x="22" y="12" text-anchor="middle" font-size="12" font-family="Courier New">
            /boats
        </text>
    <path d="M751.5 225.5v.42l10-1.04 10 .47 10 .84 10-.87 10 .83 10-1.1 10 .49 10-.42 10 .66 10-.52 10-.29 10 .11 10 .91 10-.35 10-.23 10 .49 10-.09 10-.72 10-.33 10 .19 10 .78 10 .31 10-.5 10-.26 10-.12 10 .76 10-.7 10 .28h-.07l-.11 7.2.32 7.2.05 7.2-.07 7.2-.12 7.2v-.58l-10 .93-10 .11-10-1.02-10 1.03-10-.42-10 .62-10-.57-10-.27-10-.11-10 .26-10-.23-10 .4-10 .07-10-.38-10 .4-10-.93-10 .33-10 .24-10-.13-10-.47-10 1.46-10-1.04-10 .29-10 .16-10-.62-10-.04-10-.03-10 .54h.09l.11-7.2-.07-7.2-.21-7.2-.05-7.2.13-7.2z" stroke="#000" stroke-width="2" stroke-linejoin="round" stroke-linecap="round" stroke-miterlimit="10" opacity=".25"/>
    <path d="M749.5 222.5v.42l10-1.04 10 .47 10 .84 10-.87 10 .83 10-1.1 10 .49 10-.42 10 .66 10-.52 10-.29 10 .11 10 .91 10-.35 10-.23 10 .49 10-.09 10-.72 10-.33 10 .19 10 .78 10 .31 10-.5 10-.26 10-.12 10 .76 10-.7 10 .28h-.07l-.11 7.2.32 7.2.05 7.2-.07 7.2-.12 7.2v-.58l-10 .93-10 .11-10-1.02-10 1.03-10-.42-10 .62-10-.57-10-.27-10-.11-10 .26-10-.23-10 .4-10 .07-10-.38-10 .4-10-.93-10 .33-10 .24-10-.13-10-.47-10 1.46-10-1.04-10 .29-10 .16-10-.62-10-.04-10-.03-10 .54h.09l.11-7.2-.07-7.2-.21-7.2-.05-7.2.13-7.2z" fill="#fff" stroke="#000" stroke-width="2" stroke-linejoin="round" stroke-linecap="round" stroke-miterlimit="10" pointer-events="none"/>
        <text transform="translate(870 234)" x="19" y="12" text-anchor="middle" font-size="12" font-family="Courier New">
            /cars
        </text>
    <path d="M392.5 305.5v-.54l10 .21 10-.07 10-.09 10 .93 10-.42 10 .66 10-.16 10-.74 10 .8 10-.1 10 .23 10-.93 10-.1 10 .8 10-.28 10-.55h10l10-.13 10 .28 10 .61 10-.14 10 .11 10-.43 10-.64 10 .87 10-.16 10-.64 10 .62h-.13l.22 7.8-.11 7.8.12 7.8-.16 7.8.06 7.8v.01l-10 .32-10-1.08-10 .5-10 .2-10-.65-10 .14-10-.15-10 .97-10 .3-10-1.16-10 .96-10-.05-10-.81-10 .82-10-.4-10 .02-10 .77-10-1.26-10 1.18-10-1.17-10 .51-10 .43-10-.03-10-.74-10 .9-10-.16-10-.94-10 .57h.17l-.4-7.8.39-7.8-.05-7.8-.15-7.8.04-7.8z" stroke="#000" stroke-width="2" stroke-linejoin="round" stroke-linecap="round" stroke-miterlimit="10" opacity=".25"/>
    <path d="M390.5 302.5v-.54l10 .21 10-.07 10-.09 10 .93 10-.42 10 .66 10-.16 10-.74 10 .8 10-.1 10 .23 10-.93 10-.1 10 .8 10-.28 10-.55h10l10-.13 10 .28 10 .61 10-.14 10 .11 10-.43 10-.64 10 .87 10-.16 10-.64 10 .62h-.13l.22 7.8-.11 7.8.12 7.8-.16 7.8.06 7.8v.01l-10 .32-10-1.08-10 .5-10 .2-10-.65-10 .14-10-.15-10 .97-10 .3-10-1.16-10 .96-10-.05-10-.81-10 .82-10-.4-10 .02-10 .77-10-1.26-10 1.18-10-1.17-10 .51-10 .43-10-.03-10-.74-10 .9-10-.16-10-.94-10 .57h.17l-.4-7.8.39-7.8-.05-7.8-.15-7.8.04-7.8z" fill="#fff" stroke="#000" stroke-width="2" stroke-linejoin="round" stroke-linecap="round" stroke-miterlimit="10" pointer-events="none"/>
        <text transform="translate(493 315)" x="37" y="12" text-anchor="middle" font-size="12" font-family="Courier New">
            /boats/:id
        </text>
    <path d="M30.5 306.5v-.69l10 .85 10 .08 10 .33 10-.64 10-.42 10-.25 10 .53 10 .4 10-.13 10-.75 10 .6 10 .34 10-.65 10 1.08 10-1.14 10-.06 10 .71 10-.8 10 1.23 10-1.05 10 1.01 10-.44 10-.24 10 .37 10-.75 10 .21 10 .37 10-.1h.03l.17 7.8.01 7.8-.4 7.8.25 7.8-.06 7.8v.04l-10 .39-10-.33-10 .33-10-.51-10 .01-10-.38-10 .79-10-.2-10 .48-10 .13-10-1.02-10-.47-10 1.06-10-.58-10 .75-10-1.15-10 1.2-10 .2-10-.13-10-.22-10 .03-10-.7-10 .55-10 .38-10-1.27-10 .56-10-.02-10 .08h.23l-.39-7.8-.04-7.8.41-7.8-.03-7.8-.18-7.8z" stroke="#000" stroke-width="2" stroke-linejoin="round" stroke-linecap="round" stroke-miterlimit="10" opacity=".25"/>
    <path d="M28.5 303.5v-.69l10 .85 10 .08 10 .33 10-.64 10-.42 10-.25 10 .53 10 .4 10-.13 10-.75 10 .6 10 .34 10-.65 10 1.08 10-1.14 10-.06 10 .71 10-.8 10 1.23 10-1.05 10 1.01 10-.44 10-.24 10 .37 10-.75 10 .21 10 .37 10-.1h.03l.17 7.8.01 7.8-.4 7.8.25 7.8-.06 7.8v.04l-10 .39-10-.33-10 .33-10-.51-10 .01-10-.38-10 .79-10-.2-10 .48-10 .13-10-1.02-10-.47-10 1.06-10-.58-10 .75-10-1.15-10 1.2-10 .2-10-.13-10-.22-10 .03-10-.7-10 .55-10 .38-10-1.27-10 .56-10-.02-10 .08h.23l-.39-7.8-.04-7.8.41-7.8-.03-7.8-.18-7.8z" fill="#fff" stroke="#000" stroke-width="2" stroke-linejoin="round" stroke-linecap="round" stroke-miterlimit="10" pointer-events="none"/>
        <text transform="translate(113 316)" x="55" y="12" text-anchor="middle" font-size="12" font-family="Courier New">
            /realestate/:id
        </text>
    <path d="M392.5 384.5v.6l10-1.34 10 1.13 10-.08h10l10-.77 10 .34 10-.38 10 .31 10-.39 10 1.18 10 .03 10-.63 10-.11 10 .13 10 .66 10-1.08 10 .67 10-.32 10-.08 10-.5 10 .1 10 .44 10 .61 10-1.23 10 .15 10 .72 10 .46 10-.62h.12l-.1 7.8.03 7.8-.21 7.8.18 7.8-.02 7.8v.03l-10 .29-10-.61-10 .9-10-1.09-10-.27-10 1.3-10-1.11-10 .34-10 .93-10-.06-10-.33-10 .14-10-.7-10-.39-10 .93-10-.45-10 .46-10-.34-10 .16-10 .62-10-.16-10-1.11-10 .23-10 .42-10 .62-10-.75-10-.55-10 .55h.22l-.24-7.8.22-7.8-.31-7.8.11-7.8v-7.8z" stroke="#000" stroke-width="2" stroke-linejoin="round" stroke-linecap="round" stroke-miterlimit="10" opacity=".25"/>
    <path d="M390.5 381.5v.6l10-1.34 10 1.13 10-.08h10l10-.77 10 .34 10-.38 10 .31 10-.39 10 1.18 10 .03 10-.63 10-.11 10 .13 10 .66 10-1.08 10 .67 10-.32 10-.08 10-.5 10 .1 10 .44 10 .61 10-1.23 10 .15 10 .72 10 .46 10-.62h.12l-.1 7.8.03 7.8-.21 7.8.18 7.8-.02 7.8v.03l-10 .29-10-.61-10 .9-10-1.09-10-.27-10 1.3-10-1.11-10 .34-10 .93-10-.06-10-.33-10 .14-10-.7-10-.39-10 .93-10-.45-10 .46-10-.34-10 .16-10 .62-10-.16-10-1.11-10 .23-10 .42-10 .62-10-.75-10-.55-10 .55h.22l-.24-7.8.22-7.8-.31-7.8.11-7.8v-7.8z" fill="#e1d5e7" stroke="#9673a6" stroke-width="2" stroke-linejoin="round" stroke-linecap="round" stroke-miterlimit="10" pointer-events="none"/>
        <text transform="translate(483 394)" x="47" y="12" text-anchor="middle" font-size="12" font-family="Courier New">
            Error handler
        </text>
    <path d="M392.5 144.5v.18l10-.02 10-.17 10 .14 10 .61 10-.6 10-.77 10 .07 10 .89 10-.69 10 .41 10 .48 10-.32 10-.41 10-.17 10-.12 10-.15 10 .23 10 .67 10-.47 10-.15 10 .36 10 .57 10-.31 10 .26 10-1.06 10-.05 10-.03 10 .62h-.01l-.06 7.8.22 7.8-.39 7.8.14 7.8.1 7.8v.02l-10 .03-10 .26-10-.88-10 1.02-10-.13-10-.67-10 .29-10 .2-10-.21-10 .36-10 .32-10-.73-10 .54-10-.54-10 .45-10-.33-10-.63-10 .13-10 .91-10-.68-10 .92-10-1.1-10 1.08-10-.33-10-.49-10 .25-10-.1-10 .04h.03l.06-7.8.08-7.8-.05-7.8-.14-7.8.02-7.8z" stroke="#000" stroke-width="2" stroke-linejoin="round" stroke-linecap="round" stroke-miterlimit="10" opacity=".25"/>
    <path d="M390.5 141.5v.18l10-.02 10-.17 10 .14 10 .61 10-.6 10-.77 10 .07 10 .89 10-.69 10 .41 10 .48 10-.32 10-.41 10-.17 10-.12 10-.15 10 .23 10 .67 10-.47 10-.15 10 .36 10 .57 10-.31 10 .26 10-1.06 10-.05 10-.03 10 .62h-.01l-.06 7.8.22 7.8-.39 7.8.14 7.8.1 7.8v.02l-10 .03-10 .26-10-.88-10 1.02-10-.13-10-.67-10 .29-10 .2-10-.21-10 .36-10 .32-10-.73-10 .54-10-.54-10 .45-10-.33-10-.63-10 .13-10 .91-10-.68-10 .92-10-1.1-10 1.08-10-.33-10-.49-10 .25-10-.1-10 .04h.03l.06-7.8.08-7.8-.05-7.8-.14-7.8.02-7.8z" fill="#ffe6cc" stroke="#d79b00" stroke-width="2" stroke-linejoin="round" stroke-linecap="round" stroke-miterlimit="10" pointer-events="none"/>
        <text transform="translate(461 154)" x="69" y="12" text-anchor="middle" font-size="12" font-family="Courier New">
            Security middelware
        </text>
    <path d="M751.5 306.5v.16l10-.18 10-.6 10-.08 10 .96 10 .41 10-1.32 10 1.32 10-1.27 10 .11 10 .37 10-.11 10 .32 10 .31 10-.8 10 1.02 10-.61 10-.13 10 .03 10 .52 10-.14 10-.57 10 .7 10-.06 10-1.08 10 1.14 10-.37 10 .05 10-.1h.05l.1 7.8-.29 7.8.1 7.8.24 7.8-.2 7.8v.38l-10-1.11-10 .34-10 .11-10 .03-10 .29-10 .57-10-1.13-10 .25-10 .66-10-.2-10-.41-10-.11-10 .77-10 .23-10-.44-10-.75-10 .27-10 .41-10-.84-10 .63-10 .39-10-.84-10 .33-10 .12-10 .4-10-.83-10 .42-10 .06h-.19l.14-7.8.05-7.8.16-7.8-.34-7.8.18-7.8z" stroke="#000" stroke-width="2" stroke-linejoin="round" stroke-linecap="round" stroke-miterlimit="10" opacity=".25"/>
    <path d="M749.5 303.5v.16l10-.18 10-.6 10-.08 10 .96 10 .41 10-1.32 10 1.32 10-1.27 10 .11 10 .37 10-.11 10 .32 10 .31 10-.8 10 1.02 10-.61 10-.13 10 .03 10 .52 10-.14 10-.57 10 .7 10-.06 10-1.08 10 1.14 10-.37 10 .05 10-.1h.05l.1 7.8-.29 7.8.1 7.8.24 7.8-.2 7.8v.38l-10-1.11-10 .34-10 .11-10 .03-10 .29-10 .57-10-1.13-10 .25-10 .66-10-.2-10-.41-10-.11-10 .77-10 .23-10-.44-10-.75-10 .27-10 .41-10-.84-10 .63-10 .39-10-.84-10 .33-10 .12-10 .4-10-.83-10 .42-10 .06h-.19l.14-7.8.05-7.8.16-7.8-.34-7.8.18-7.8z" fill="#fff" stroke="#000" stroke-width="2" stroke-linejoin="round" stroke-linecap="round" stroke-miterlimit="10" pointer-events="none"/>
        <text transform="translate(849 316)" x="40" y="12" text-anchor="middle" font-size="12" font-family="Courier New">
            /cars/:type
        </text>
    <path d="M31.5 225.5v-.39l10 .63 10-.46 10 .03 10 .9 10-.71 10-.01 10 .27 10-.48 10-.28 10 .61 10 .17 10 .11 10-.45 10 .37 10 .28 10-.42 10-.67 10 .6 10 .31 10 .13 10-.87 10 .87 10-1.14 10-.01 10 1.05 10-.15 10-.44 10 .15h.12l-.26 7.2.28 7.2.07 7.2-.29 7.2.08 7.2v.32l-10-.62-10 1.02-10-.8-10 .44-10 .02-10-.96-10 .34-10-.1-10 .85-10 .09-10-1.17-10 .11-10 .59-10 .28-10-.44-10 .31-10 .12-10 .32-10-1.33-10 .2-10 .29-10-.12-10 .16-10 .36-10-.49-10-.18-10 .87-10-.48h-.16l.15-7.2.17-7.2-.13-7.2-.06-7.2.03-7.2z" stroke="#000" stroke-width="2" stroke-linejoin="round" stroke-linecap="round" stroke-miterlimit="10" opacity=".25"/>
    <path d="M29.5 222.5v-.39l10 .63 10-.46 10 .03 10 .9 10-.71 10-.01 10 .27 10-.48 10-.28 10 .61 10 .17 10 .11 10-.45 10 .37 10 .28 10-.42 10-.67 10 .6 10 .31 10 .13 10-.87 10 .87 10-1.14 10-.01 10 1.05 10-.15 10-.44 10 .15h.12l-.26 7.2.28 7.2.07 7.2-.29 7.2.08 7.2v.32l-10-.62-10 1.02-10-.8-10 .44-10 .02-10-.96-10 .34-10-.1-10 .85-10 .09-10-1.17-10 .11-10 .59-10 .28-10-.44-10 .31-10 .12-10 .32-10-1.33-10 .2-10 .29-10-.12-10 .16-10 .36-10-.49-10-.18-10 .87-10-.48h-.16l.15-7.2.17-7.2-.13-7.2-.06-7.2.03-7.2z" fill="#fff" stroke="#000" stroke-width="2" stroke-linejoin="round" stroke-linecap="round" stroke-miterlimit="10" pointer-events="none"/>
        <text transform="translate(129 234)" x="40" y="12" text-anchor="middle" font-size="12" font-family="Courier New">
            /realestate
        </text>
    <path d="M31.5 144.5v.37l10-.12 10-.78 10-.11 10 .77 10 .19 10-.62 10-.23 10 1.2 10-1.21 10 .05 10 .67 10 .48 10-.7 10 .08 10 .7 10-1 10 1 10-1.06 10-.21 10 .19h10l10 .76 10-.34 10 .02 10-.61 10 .98 10-1.06 10 .59h-.21l.04 7.8v15.6l.2 7.8-.03 7.8v.13l-10-.43-10 1.01-10-.52-10-.67-10 1.04-10-.11-10-.61-10-.15-10-.02-10-.36-10 .54-10-.38-10 1.14-10 .06-10-1.12-10 .84-10-.65-10 .54-10-.07-10-.92-10 .06-10 .46-10 .33-10-.65-10 .07-10 .28-10 .71-10-.55h-.09l.19-7.8.07-7.8.03-7.8-.34-7.8.14-7.8z" stroke="#000" stroke-width="2" stroke-linejoin="round" stroke-linecap="round" stroke-miterlimit="10" opacity=".25"/>
    <path d="M29.5 141.5v.37l10-.12 10-.78 10-.11 10 .77 10 .19 10-.62 10-.23 10 1.2 10-1.21 10 .05 10 .67 10 .48 10-.7 10 .08 10 .7 10-1 10 1 10-1.06 10-.21 10 .19h10l10 .76 10-.34 10 .02 10-.61 10 .98 10-1.06 10 .59h-.21l.04 7.8v15.6l.2 7.8-.03 7.8v.13l-10-.43-10 1.01-10-.52-10-.67-10 1.04-10-.11-10-.61-10-.15-10-.02-10-.36-10 .54-10-.38-10 1.14-10 .06-10-1.12-10 .84-10-.65-10 .54-10-.07-10-.92-10 .06-10 .46-10 .33-10-.65-10 .07-10 .28-10 .71-10-.55h-.09l.19-7.8.07-7.8.03-7.8-.34-7.8.14-7.8z" fill="#ffe6cc" stroke="#d79b00" stroke-width="2" stroke-linejoin="round" stroke-linecap="round" stroke-miterlimit="10" pointer-events="none"/>
        <text transform="translate(100 154)" x="69" y="12" text-anchor="middle" font-size="12" font-family="Courier New">
            Security middelware
        </text>
    <path d="M751.5 146.5v.75l10-.07 10-.59 10-.27 10 .78 10-.05 10-.14 10-.04 10-1.07 10 .23 10 .85 10-.5 10-.14 10-.48 10 1.27 10-.31 10-.91 10 1.05 10-.28 10-.52 10-.24 10 .71 10-.3 10-.04 10 .22 10 .44 10-.08 10-.51 10 .24h.14l.09 7.8-.36 7.8.21 7.8-.1 7.8.02 7.8v-.39l-10 .48-10-.43-10 .95-10-1.1-10 .47-10 .18-10-.05-10 .44-10-1.06-10 .27-10 .4-10-.73-10-.15-10 .39-10 1.03-10-1.04-10 .52-10-.22-10 .56-10-.92-10-.04-10-.03-10 .11-10 1.03-10-1.02-10 .14-10 .52-10-.31h.22l-.42-7.8.25-7.8.05-7.8-.01-7.8-.09-7.8z" stroke="#000" stroke-width="2" stroke-linejoin="round" stroke-linecap="round" stroke-miterlimit="10" opacity=".25"/>
    <path d="M749.5 143.5v.75l10-.07 10-.59 10-.27 10 .78 10-.05 10-.14 10-.04 10-1.07 10 .23 10 .85 10-.5 10-.14 10-.48 10 1.27 10-.31 10-.91 10 1.05 10-.28 10-.52 10-.24 10 .71 10-.3 10-.04 10 .22 10 .44 10-.08 10-.51 10 .24h.14l.09 7.8-.36 7.8.21 7.8-.1 7.8.02 7.8v-.39l-10 .48-10-.43-10 .95-10-1.1-10 .47-10 .18-10-.05-10 .44-10-1.06-10 .27-10 .4-10-.73-10-.15-10 .39-10 1.03-10-1.04-10 .52-10-.22-10 .56-10-.92-10-.04-10-.03-10 .11-10 1.03-10-1.02-10 .14-10 .52-10-.31h.22l-.42-7.8.25-7.8.05-7.8-.01-7.8-.09-7.8z" fill="#ffe6cc" stroke="#d79b00" stroke-width="2" stroke-linejoin="round" stroke-linecap="round" stroke-miterlimit="10" pointer-events="none"/>
        <text transform="translate(820 156)" x="69" y="12" text-anchor="middle" font-size="12" font-family="Courier New">
            Security middelware
        </text>
    <path d="M31.5 384.5v.01l10 .71 10-1.32 10 .08 10 .85 10-1.01 10 1.28 10-1.15 10 .67 10 .49 10-.19 10-.66 10-.11 10-.22 10 1.11 10-.82 10-.47 10 1.28 10-1.11 10 .32 10 .66 10-.57 10 .06 10 .37 10-.82 10 1.02 10-.69 10 .33 10-.1h-.17l.37 7.8-.27 7.8.06 7.8-.2 7.8.21 7.8v-.23l-10 .94-10-.79-10-.39-10 .08-10-.16-10 .39-10-.56-10 .86-10 .13-10 .37-10-.27-10-.17-10-.25-10-.51-10 .31-10 .67-10-.38-10 .7-10-.95-10 .1-10-.1-10 .47-10-.37-10 .69-10-.21-10-1h-10l-10 .63h.01l.22-7.8-.01-7.8-.29-7.8.07-7.8v-7.8z" stroke="#000" stroke-width="2" stroke-linejoin="round" stroke-linecap="round" stroke-miterlimit="10" opacity=".25"/>
    <path d="M29.5 381.5v.01l10 .71 10-1.32 10 .08 10 .85 10-1.01 10 1.28 10-1.15 10 .67 10 .49 10-.19 10-.66 10-.11 10-.22 10 1.11 10-.82 10-.47 10 1.28 10-1.11 10 .32 10 .66 10-.57 10 .06 10 .37 10-.82 10 1.02 10-.69 10 .33 10-.1h-.17l.37 7.8-.27 7.8.06 7.8-.2 7.8.21 7.8v-.23l-10 .94-10-.79-10-.39-10 .08-10-.16-10 .39-10-.56-10 .86-10 .13-10 .37-10-.27-10-.17-10-.25-10-.51-10 .31-10 .67-10-.38-10 .7-10-.95-10 .1-10-.1-10 .47-10-.37-10 .69-10-.21-10-1h-10l-10 .63h.01l.22-7.8-.01-7.8-.29-7.8.07-7.8v-7.8z" fill="#e1d5e7" stroke="#9673a6" stroke-width="2" stroke-linejoin="round" stroke-linecap="round" stroke-miterlimit="10" pointer-events="none"/>
        <text transform="translate(122 394)" x="47" y="12" text-anchor="middle" font-size="12" font-family="Courier New">
            Error handler
        </text>
    <path d="M751.5 385.5v.73l10-1.34 10 .9 10-.73 10 .21 10 .88 10-.12 10-1.18 10 1.22 10-.31 10 .47 10-.61 10-.19 10 .67 10-.02 10-1.3 10 .14 10 .23 10-.13 10 .73 10-.19h10l10 .44 10-.91 10 .16 10-.5 10 1.39 10-.03 10-.61h-.11l-.03 7.8.02 7.8-.13 7.8.29 7.8-.04 7.8v.08l-10 .56-10-.9-10 .03h-10l-10 .73-10-.43-10 .54-10-.77h-10l-10-.57-10 .95-10 .44-10-.71-10 .78-10-.93-10 .03-10 .65-10-.84-10 .66-10 .33-10-.28-10-.06-10-.22-10-.74-10 1.29-10-.77-10-.23-10 .38h-.2v-7.8l.08-7.8.26-7.8.04-7.8-.18-7.8z" stroke="#000" stroke-width="2" stroke-linejoin="round" stroke-linecap="round" stroke-miterlimit="10" opacity=".25"/>
    <path d="M749.5 382.5v.73l10-1.34 10 .9 10-.73 10 .21 10 .88 10-.12 10-1.18 10 1.22 10-.31 10 .47 10-.61 10-.19 10 .67 10-.02 10-1.3 10 .14 10 .23 10-.13 10 .73 10-.19h10l10 .44 10-.91 10 .16 10-.5 10 1.39 10-.03 10-.61h-.11l-.03 7.8.02 7.8-.13 7.8.29 7.8-.04 7.8v.08l-10 .56-10-.9-10 .03h-10l-10 .73-10-.43-10 .54-10-.77h-10l-10-.57-10 .95-10 .44-10-.71-10 .78-10-.93-10 .03-10 .65-10-.84-10 .66-10 .33-10-.28-10-.06-10-.22-10-.74-10 1.29-10-.77-10-.23-10 .38h-.2v-7.8l.08-7.8.26-7.8.04-7.8-.18-7.8z" fill="#e1d5e7" stroke="#9673a6" stroke-width="2" stroke-linejoin="round" stroke-linecap="round" stroke-miterlimit="10" pointer-events="none"/>
        <text transform="translate(842 395)" x="47" y="12" text-anchor="middle" font-size="12" font-family="Courier New">
            Error handler
        </text>
</svg>
